<?xml version="1.0" standalone="no"?>
<!DOCTYPE svg PUBLIC "-//W3C//DTD SVG 20010904//EN"
 "http://www.w3.org/TR/2001/REC-SVG-20010904/DTD/svg10.dtd">
<svg version="1.0" xmlns="http://www.w3.org/2000/svg"
 width="1250.000000pt" height="1250.000000pt" viewBox="0 0 1250.000000 1250.000000"
 preserveAspectRatio="xMidYMid meet">

<g transform="translate(0.000000,1250.000000) scale(0.100000,-0.100000)"
fill="#000000" stroke="none">
<path d="M0 6250 l0 -6250 6250 0 6250 0 0 6250 0 6250 -6250 0 -6250 0 0
-6250z m7011 3983 c13 -16 12 -17 -3 -4 -10 7 -18 15 -18 17 0 8 8 3 21 -13z
m-723 -196 c19 -4 31 -3 27 2 -3 5 -1 13 5 16 6 4 9 1 8 -7 -2 -8 5 -12 18
-10 12 1 26 -4 33 -11 9 -12 5 -16 -21 -21 -19 -4 -28 -10 -22 -15 5 -5 110
-67 234 -138 124 -71 547 -316 940 -543 581 -337 722 -415 753 -415 23 -1 45
-9 55 -20 16 -17 16 -17 -8 -1 -13 9 -29 16 -35 16 -5 0 4 -9 21 -19 18 -11
35 -24 39 -30 3 -6 11 -9 16 -6 5 4 9 1 9 -5 0 -6 12 -16 28 -23 15 -6 35 -18
44 -26 15 -13 17 -107 18 -1282 l1 -1267 -93 -53 c-83 -46 -546 -314 -1553
-896 -176 -102 -339 -198 -362 -214 -23 -16 -47 -29 -53 -29 -6 0 -8 -5 -4
-12 4 -6 3 -8 -4 -4 -6 3 -38 -10 -72 -30 l-61 -36 -107 65 c-59 36 -384 224
-722 420 -338 195 -660 380 -715 412 -110 64 -424 244 -440 253 -5 3 -5 -1 2
-9 10 -12 8 -17 -6 -26 -15 -10 -18 -9 -17 5 1 12 -5 16 -19 14 -20 -3 -20 -2
0 13 18 15 18 15 -13 9 -24 -5 -32 -3 -32 8 0 17 -45 59 -54 51 -3 -4 -6 -2
-6 4 0 6 -16 20 -35 32 -30 17 -35 26 -35 56 0 19 -4 35 -10 35 -5 0 -10 5
-10 11 0 5 5 7 10 4 6 -3 10 0 10 7 3 145 -2 2173 -4 2175 -2 2 -14 -34 -26
-81 -13 -47 -26 -83 -31 -81 -4 3 -5 -3 -3 -12 2 -10 0 -31 -6 -48 -8 -23 -9
-9 -6 63 2 51 0 95 -5 98 -12 7 -11 51 1 59 6 3 10 14 10 23 0 15 -2 15 -10 2
-8 -11 -9 -7 -4 15 4 17 9 34 12 40 4 5 7 16 8 25 6 43 38 147 50 161 11 12
11 18 1 28 -10 11 -8 11 10 2 16 -8 24 -8 29 1 4 6 3 9 -2 6 -5 -3 -14 -1 -20
6 -8 9 -7 16 4 26 14 13 15 12 10 -2 -7 -17 15 -19 29 -3 4 4 2 5 -4 1 -7 -4
-13 -2 -13 3 0 6 5 11 10 11 6 0 10 5 10 11 0 10 37 49 46 49 1 0 -2 -16 -8
-36 -5 -20 -7 -38 -4 -41 4 -4 1031 584 1566 897 63 37 162 95 220 128 58 34
101 62 97 62 -5 0 -44 -9 -88 -20 -44 -12 -84 -18 -89 -15 -5 3 -11 1 -15 -5
-3 -5 -13 -10 -22 -10 -26 0 4 28 39 35 23 5 27 9 17 16 -11 7 -11 9 3 9 9 0
39 11 66 25 28 14 58 25 67 25 14 0 15 3 6 14 -10 12 -6 14 23 12 22 -1 38 4
41 12 3 7 9 10 15 7 6 -4 8 -11 5 -16 -3 -5 1 -6 10 -2 13 4 14 8 4 14 -8 5
-1 11 22 17 22 6 39 5 47 -1 10 -8 12 -7 10 3 -2 11 6 14 31 11 26 -2 31 0 25
11 -6 10 -5 11 7 2 8 -6 29 -14 47 -17z m-1942 -502 c-8 -8 -20 -15 -27 -15
-7 0 -4 6 7 15 25 19 40 19 20 0z m-36 -52 c0 -5 -5 -15 -11 -23 -9 -12 -10
-12 -5 4 5 14 2 17 -10 12 -8 -3 -21 -6 -27 -6 -7 0 -3 -7 7 -15 11 -8 15 -15
10 -15 -12 0 -34 21 -34 31 0 8 24 16 53 18 9 0 17 -2 17 -6z m-84 -12 c-8
-13 4 -42 14 -36 5 3 12 0 16 -6 5 -8 3 -9 -6 -4 -10 6 -12 4 -7 -8 11 -28 -1
-19 -18 13 -14 27 -13 50 1 50 3 0 3 -4 0 -9z m26 -85 c7 4 8 2 4 -5 -9 -15
-32 1 -47 33 -6 13 -2 11 11 -7 12 -15 27 -24 32 -21z m-33 -30 c-3 -3 -11 5
-18 17 -13 21 -12 21 5 5 10 -10 16 -20 13 -22z m12 -23 c-12 -20 -14 -14 -5
12 4 9 9 14 11 11 3 -2 0 -13 -6 -23z m-21 -28 c0 -5 -5 -17 -10 -25 -9 -13
-11 -13 -20 0 -5 8 -10 22 -10 30 0 13 1 13 10 0 8 -12 10 -10 10 10 0 20 2
22 10 10 5 -8 10 -19 10 -25z m-35 -65 c-8 -13 -25 -13 -25 1 0 5 5 7 11 3 8
-4 9 1 5 17 -6 20 -5 21 4 6 6 -9 8 -22 5 -27z m4035 -274 c0 -2 -7 -7 -16
-10 -8 -3 -12 -2 -9 4 6 10 25 14 25 6z m17 -33 c4 -10 11 -21 17 -25 7 -5 6
-8 -2 -8 -8 0 -16 9 -19 20 -3 11 -9 17 -14 14 -5 -3 -9 0 -9 5 0 18 20 12 27
-6z m-4259 -528 c-3 -3 -9 2 -12 12 -6 14 -5 15 5 6 7 -7 10 -15 7 -18z m392
-2408 c0 -4 -11 4 -25 18 -14 14 -30 25 -36 25 -6 0 -7 5 -3 11 4 8 -1 9 -17
4 -21 -7 -22 -6 -10 9 12 15 17 13 52 -21 22 -21 39 -42 39 -46z m-903 -2253
c92 -152 176 -286 185 -297 16 -21 17 -7 18 276 l0 297 80 0 80 0 0 -445 c0
-349 -3 -445 -12 -446 -34 -3 -159 0 -166 5 -5 3 -87 132 -183 287 l-174 282
-3 -287 -2 -286 -85 0 -85 0 0 445 0 445 89 0 90 0 168 -276z m1223 201 l0
-75 -245 0 -245 0 0 -100 0 -100 225 0 225 0 0 -75 0 -75 -225 0 -225 0 0
-120 0 -120 250 0 250 0 0 -77 0 -78 -327 2 c-181 1 -334 2 -340 3 -10 0 -13
96 -13 445 l0 445 335 0 335 0 0 -75z m743 56 c113 -36 178 -170 147 -302 -18
-74 -85 -141 -164 -164 l-57 -17 39 -28 c21 -15 52 -45 69 -66 52 -66 192
-289 185 -295 -4 -3 -53 -3 -109 -1 l-101 4 -67 101 c-160 241 -188 267 -290
267 l-45 0 0 -185 0 -185 -30 -1 c-16 0 -52 0 -80 0 -27 0 -54 0 -60 0 -7 1
-10 157 -10 447 l0 446 268 -5 c167 -2 281 -9 305 -16z m787 9 c160 -30 258
-151 283 -349 29 -236 -48 -427 -203 -500 -54 -25 -61 -26 -297 -29 l-243 -3
0 445 0 446 204 0 c112 0 227 -5 256 -10z m620 -165 l0 -175 180 0 180 0 0
175 0 175 90 0 90 0 0 -445 0 -445 -90 0 -90 0 0 195 0 195 -177 -2 -178 -3
-3 -192 -2 -193 -85 0 -85 0 0 445 0 445 85 0 85 0 0 -175z m900 -270 l0 -445
-90 0 -90 0 0 445 0 445 90 0 90 0 0 -445z m385 128 c59 -175 111 -324 114
-330 4 -7 56 136 116 317 l110 330 93 0 c71 0 93 -3 90 -12 -2 -7 -74 -208
-159 -445 l-154 -433 -97 0 -96 0 -16 43 c-9 23 -81 223 -160 445 l-143 402
97 0 97 0 108 -317z m1285 242 l0 -75 -240 0 -240 0 0 -100 0 -100 225 0 225
0 0 -75 0 -75 -225 0 -225 0 0 -125 0 -125 250 0 250 0 0 -70 0 -70 -340 0
-340 0 0 445 0 445 330 0 330 0 0 -75z"/>
<path d="M5030 3756 l0 -116 118 0 c64 0 135 5 157 10 57 13 85 49 85 109 0
40 -5 52 -31 77 l-30 29 -150 3 -149 4 0 -116z"/>
<path d="M5930 3575 l0 -297 134 4 c156 4 175 11 216 94 23 46 25 59 25 194 0
136 -2 149 -26 195 -39 78 -84 98 -231 103 l-118 4 0 -297z"/>
</g>
</svg>
