<?xml version="1.0" standalone="no"?>
<!DOCTYPE svg PUBLIC "-//W3C//DTD SVG 20010904//EN"
 "http://www.w3.org/TR/2001/REC-SVG-20010904/DTD/svg10.dtd">
<svg version="1.0" xmlns="http://www.w3.org/2000/svg"
 width="1143.000000pt" height="1456.000000pt" viewBox="0 0 1143.000000 1456.000000"
 preserveAspectRatio="xMidYMid meet">

<g transform="translate(0.000000,1456.000000) scale(0.100000,-0.100000)"
fill="#000000" stroke="none">
<path d="M7221 13749 c-64 -8 -93 -19 -52 -19 13 0 35 -6 49 -14 15 -8 69 -19
121 -24 94 -11 131 -25 98 -38 -24 -9 -185 17 -198 32 -8 10 -17 10 -37 3 -35
-14 -83 -4 -105 21 -21 24 -77 28 -77 5 0 -9 7 -18 15 -21 8 -4 15 -13 15 -20
0 -12 -14 -14 -68 -12 -58 2 -76 -1 -122 -25 -30 -16 -75 -31 -100 -33 -44 -5
-512 12 -622 22 -42 4 -62 2 -81 -10 -14 -10 -73 -23 -138 -31 -127 -16 -256
-41 -401 -79 -69 -18 -146 -28 -270 -36 -260 -17 -347 -38 -503 -121 -51 -27
-160 -72 -241 -100 -143 -48 -236 -95 -364 -185 -25 -17 -89 -55 -142 -84 -68
-37 -126 -80 -196 -144 -54 -50 -128 -117 -165 -149 -100 -87 -267 -318 -328
-454 -44 -97 -125 -310 -139 -363 -6 -25 -23 -81 -37 -125 -21 -66 -26 -101
-27 -200 0 -66 3 -161 8 -210 7 -72 5 -110 -9 -189 -20 -111 -17 -248 8 -376
8 -41 20 -120 26 -175 5 -55 21 -135 35 -177 13 -43 29 -110 36 -150 6 -39 15
-77 20 -83 13 -16 34 -249 36 -405 1 -74 2 -154 3 -177 0 -33 4 -43 17 -43 14
0 16 -8 11 -55 -5 -48 -2 -60 20 -95 15 -22 30 -40 35 -40 4 0 8 -23 8 -50 0
-45 3 -52 25 -60 15 -6 32 -25 40 -44 8 -19 26 -46 40 -60 14 -14 25 -30 25
-36 0 -5 9 -10 20 -10 10 0 25 -10 31 -22 20 -36 95 -93 152 -114 33 -12 114
-172 132 -261 4 -18 14 -37 22 -42 17 -9 43 -73 43 -108 0 -33 11 -53 29 -53
27 -1 46 -23 67 -80 13 -34 29 -59 43 -65 12 -5 25 -21 28 -35 4 -14 26 -55
50 -93 24 -37 43 -74 43 -82 0 -8 9 -15 20 -15 13 0 22 -10 29 -35 5 -19 23
-55 40 -80 17 -25 31 -56 31 -69 0 -13 6 -29 14 -35 20 -16 58 -92 86 -171 13
-36 30 -73 38 -83 38 -43 53 -296 28 -472 -8 -60 -17 -144 -20 -186 -3 -42
-10 -89 -16 -103 -6 -18 -6 -25 0 -21 6 3 10 13 10 21 0 8 4 14 8 14 8 0 18
63 56 361 21 159 21 168 4 205 -9 21 -17 64 -17 94 -1 57 -4 85 -14 110 -3 8
-8 58 -10 110 -3 52 -10 108 -16 123 -6 16 -13 52 -16 80 -5 64 -8 76 -23 104
-7 12 -11 50 -10 85 0 35 -2 78 -7 97 -6 29 -5 33 8 28 12 -4 14 -1 10 11 -5
13 -3 14 6 6 16 -14 51 -6 51 11 0 7 -8 12 -17 11 -12 0 -19 7 -21 22 -2 15 2
22 12 22 9 0 15 3 13 8 -3 9 6 12 33 12 11 0 20 -5 20 -10 0 -6 9 -20 20 -32
18 -20 21 -20 38 -5 11 10 26 14 40 10 18 -4 22 -1 22 16 0 29 26 26 34 -4 10
-38 37 -32 34 8 -2 22 1 31 10 29 7 -1 15 5 18 13 4 8 11 15 16 15 5 0 23 13
39 30 24 24 30 38 32 82 2 50 1 53 -23 53 -17 0 -26 -6 -28 -20 -2 -17 -19
-31 -92 -74 -8 -5 -61 -23 -117 -41 -57 -18 -103 -36 -103 -41 0 -5 -5 -9 -11
-9 -5 0 -8 4 -4 9 8 14 -8 21 -56 26 -48 5 -88 31 -179 116 -36 33 -99 89
-140 124 -79 66 -99 89 -179 198 -175 240 -311 575 -311 770 0 139 59 308 140
400 40 45 96 84 106 74 5 -5 -17 -59 -27 -67 -17 -13 -79 -102 -79 -113 0 -7
-7 -22 -15 -34 -9 -12 -17 -44 -19 -70 -2 -26 -9 -49 -15 -51 -14 -5 -15 -49
-1 -57 6 -3 10 -1 10 5 0 6 6 18 14 25 7 8 16 32 20 54 4 26 13 44 27 51 11 7
25 24 30 39 6 16 25 37 45 47 18 10 34 22 34 25 0 13 99 31 132 24 79 -16 98
-26 118 -65 11 -22 20 -45 20 -53 0 -8 9 -22 20 -32 11 -10 20 -24 20 -32 0
-7 7 -13 15 -13 19 0 19 -9 1 -29 -8 -9 -16 -29 -18 -46 -3 -27 0 -30 26 -33
19 -2 32 2 38 12 5 9 22 16 38 16 35 0 36 5 10 45 -11 17 -20 36 -20 43 0 33
-126 173 -185 206 -16 9 -44 25 -62 36 -17 10 -43 20 -59 22 -43 5 -39 23 6
25 22 2 40 -2 40 -7 0 -10 40 8 51 23 3 5 9 -1 12 -13 4 -16 11 -20 25 -15 11
3 23 1 27 -5 3 -5 26 -10 50 -10 39 0 46 -4 60 -29 13 -26 18 -29 43 -21 20 5
40 3 67 -10 44 -21 71 -16 79 13 5 20 6 20 25 3 15 -14 23 -15 40 -6 12 6 29
10 39 8 9 -2 16 3 15 10 -2 6 1 12 5 12 9 0 48 -62 45 -71 -1 -4 5 -6 14 -5 9
0 23 -12 31 -29 9 -16 19 -37 24 -45 4 -8 12 -25 18 -37 5 -12 21 -30 35 -39
18 -12 23 -20 16 -27 -16 -16 -13 -37 5 -37 11 0 13 -6 9 -19 -4 -14 0 -21 15
-26 11 -4 18 -11 14 -16 -3 -6 -12 -8 -20 -5 -8 3 -14 -1 -14 -9 0 -11 12 -15
41 -15 32 0 40 -3 35 -15 -7 -19 8 -19 24 0 18 22 48 -1 42 -32 -3 -18 1 -26
17 -30 11 -3 21 -11 21 -18 0 -7 5 -15 11 -17 15 -5 14 -85 -2 -104 -9 -11 -8
-21 5 -47 8 -17 16 -29 17 -24 1 4 3 12 4 17 1 6 3 19 4 29 0 11 10 22 20 26
23 7 44 58 30 72 -6 6 -5 14 5 22 10 8 16 9 21 1 12 -19 52 -11 69 15 13 20
14 29 5 47 -7 13 -15 30 -19 38 -4 8 -18 21 -31 27 l-24 13 29 0 c21 0 27 4
22 16 -3 9 -6 18 -6 20 0 2 -7 4 -15 4 -21 0 -30 27 -15 45 10 12 10 21 1 41
-6 14 -11 40 -11 57 0 18 -4 37 -9 42 -14 15 -1 64 20 75 9 6 28 31 41 56 12
26 33 51 45 57 25 11 29 22 12 33 -16 9 -1 75 22 97 10 10 18 28 18 40 -1 17
-2 18 -6 5 -7 -26 -20 -22 -30 9 -12 36 4 91 29 99 23 7 23 30 1 43 -10 5 -16
11 -13 13 33 22 78 38 105 38 33 0 61 21 51 39 -4 5 -2 12 3 15 5 4 11 -2 14
-11 2 -10 2 5 -1 32 -5 61 -15 74 -42 57 -17 -11 -20 -10 -20 7 0 11 8 24 18
30 11 6 17 22 17 48 0 34 2 38 24 35 33 -3 49 13 43 46 -5 24 -3 25 10 14 19
-15 31 -2 22 23 -4 9 -13 14 -21 10 -11 -3 -13 -1 -9 10 8 22 -4 45 -24 45
-13 0 -16 -6 -12 -26 4 -20 2 -25 -7 -19 -7 4 -11 18 -8 31 2 14 0 27 -4 30
-5 3 -9 12 -9 20 0 9 -6 22 -14 30 -12 11 -20 12 -40 2 -31 -14 -44 -5 -26 17
9 10 22 14 36 11 14 -4 29 0 40 11 23 24 58 22 63 -2 3 -16 1 -17 -12 -7 -19
16 -47 5 -47 -20 0 -18 4 -19 36 -14 l35 7 -6 -35 c-7 -34 -6 -35 21 -32 35 4
42 21 14 36 -20 11 -20 13 -6 29 19 20 21 62 5 78 -15 15 -1 36 18 29 12 -5
14 -1 9 19 -5 19 -2 27 11 32 23 9 61 50 68 74 3 10 15 21 26 24 11 4 18 13
15 20 -2 7 7 22 20 34 22 19 27 20 39 7 18 -18 19 -38 3 -54 -6 -6 -9 -15 -5
-18 3 -4 13 1 22 10 9 9 20 16 25 16 10 0 40 57 40 76 0 7 14 15 30 18 17 3
44 9 60 12 17 3 36 14 43 25 12 20 57 27 57 9 0 -6 -6 -19 -12 -30 -11 -17
-10 -22 2 -30 24 -15 2 -24 -26 -11 -31 14 -38 10 -30 -17 5 -14 13 -18 30
-15 32 6 42 -14 20 -38 -16 -18 -16 -21 -2 -35 25 -25 58 -9 58 27 0 26 3 29
20 24 26 -8 37 19 17 40 -20 19 -37 19 -37 0 0 -20 -16 -19 -24 1 -9 22 20 42
53 36 14 -3 23 -1 18 3 -4 5 4 16 18 25 23 15 24 18 10 30 -22 19 -18 33 18
55 34 22 48 62 25 76 -21 14 -31 10 -25 -10 3 -11 -1 -22 -8 -25 -20 -7 -26 4
-13 27 8 16 7 23 -6 32 -25 19 -20 54 10 65 20 8 25 16 23 38 -4 30 8 55 21
47 5 -3 13 2 18 11 8 14 12 14 33 3 31 -18 49 -35 49 -47 0 -5 12 -17 26 -27
22 -14 28 -15 35 -4 5 8 7 20 4 27 -3 8 -5 25 -5 39 0 23 -2 24 -40 18 -26 -4
-40 -3 -40 4 0 6 5 11 10 11 6 0 10 16 10 35 0 23 7 41 20 52 22 19 27 53 8
53 -7 1 -2 10 11 21 27 22 38 17 43 -20 3 -27 28 -42 28 -17 0 8 5 27 12 43 6
15 11 31 10 36 -3 11 16 9 23 -3 3 -5 2 -10 -4 -10 -11 0 -4 -76 9 -99 6 -10
10 -11 10 -4 0 7 10 12 22 10 17 -1 24 4 26 21 2 12 9 22 16 22 8 0 19 6 25
14 9 10 8 15 -3 19 -7 3 -18 1 -24 -5 -11 -11 -19 8 -21 57 -1 31 14 24 21 -9
2 -12 12 -20 25 -21 18 -1 25 6 32 29 4 18 22 46 40 63 32 32 35 32 31 -1 -1
-10 4 -23 12 -27 20 -13 28 -11 21 7 -3 9 4 26 18 40 20 22 30 25 62 20 22 -4
37 -2 37 4 0 5 5 10 12 10 6 0 9 -3 5 -6 -9 -10 19 -34 40 -34 11 0 23 4 28 9
6 5 26 11 46 15 32 6 37 3 47 -20 15 -32 37 -26 37 11 1 23 7 30 28 36 20 5
30 3 38 -9 7 -12 12 -14 15 -4 3 6 19 12 34 12 16 0 32 5 35 10 3 6 19 10 36
10 27 0 29 -2 29 -40 0 -31 3 -38 15 -34 17 7 21 34 5 34 -5 0 -10 7 -10 16 0
10 6 14 15 11 8 -4 17 -2 20 3 14 23 35 8 41 -29 8 -48 18 -66 33 -56 9 5 9
10 0 22 -9 10 -9 17 -2 21 5 4 13 14 16 22 4 12 6 11 6 -2 1 -10 6 -18 12 -18
6 0 8 -7 5 -16 -5 -13 -1 -15 21 -9 16 3 34 12 42 20 11 11 18 10 40 -11 32
-30 36 -30 67 3 23 25 27 26 35 10 13 -23 29 -22 29 2 0 22 19 39 21 19 1 -7
1 -17 0 -22 -1 -5 6 -17 15 -27 16 -18 16 -19 -6 -19 -13 0 -39 -6 -58 -12
-28 -11 -36 -11 -39 0 -7 20 -23 3 -23 -24 0 -23 9 -28 37 -25 7 1 18 -7 25
-19 15 -24 33 -27 24 -4 -8 20 10 54 29 54 20 0 30 -21 14 -31 -12 -8 -12 -11
1 -19 13 -9 13 -11 0 -21 -12 -8 -12 -9 5 -7 12 2 19 11 19 21 -1 11 4 17 15
16 9 0 26 2 39 6 17 6 20 10 11 21 -6 7 -8 18 -4 24 4 7 -2 14 -14 17 -22 6
-29 22 -8 19 6 0 13 3 14 9 2 5 -5 10 -15 10 -27 0 -28 42 -1 50 12 4 24 3 28
-2 12 -18 41 -23 41 -8 0 8 9 15 19 15 11 0 23 5 26 10 4 6 16 10 28 8 16 -2
22 2 22 17 0 34 38 25 50 -11 16 -50 30 -39 33 28 1 34 5 64 7 66 8 9 34 -19
37 -40 2 -12 9 -23 16 -26 7 -2 10 2 6 12 -9 22 24 32 43 14 12 -12 13 -20 4
-37 -9 -16 -8 -26 5 -47 16 -23 18 -24 27 -8 7 13 7 19 -1 22 -7 2 -12 13 -12
23 0 11 4 18 9 14 5 -3 12 -1 16 5 3 5 -3 15 -15 22 -11 7 -20 18 -20 25 0 7
-4 13 -10 13 -5 0 -10 8 -10 18 0 10 -5 23 -12 30 -6 6 -9 14 -5 18 10 10 24
-4 31 -32 9 -33 44 -63 68 -56 26 7 23 32 -4 29 -32 -3 -31 35 0 48 17 7 22
16 19 32 -3 17 2 22 24 25 16 3 31 0 33 -6 2 -6 5 0 5 13 1 23 2 23 19 8 28
-25 43 -21 36 8 -9 36 9 31 47 -12 45 -53 52 -55 102 -34 54 23 65 38 41 56
-18 13 -18 14 4 44 12 17 22 33 22 35 0 10 -64 -7 -88 -22 -16 -10 -26 -12
-34 -4 -13 13 -1 52 18 52 21 0 64 45 64 67 0 16 -3 15 -18 -4 -18 -23 -66
-40 -75 -26 -6 10 35 206 51 245 6 14 16 29 21 33 6 3 11 26 11 51 0 24 5 53
12 63 10 16 7 26 -15 58 -15 22 -27 44 -27 51 0 7 -4 12 -10 12 -14 0 -12 -20
5 -50 16 -28 20 -90 6 -90 -11 0 -17 17 -27 75 -3 22 -12 47 -19 55 -7 8 -15
27 -18 41 -4 14 -30 55 -58 90 -28 35 -57 78 -64 94 -7 17 -18 41 -24 55 -26
60 -144 201 -243 291 -88 80 -118 101 -175 122 -148 55 -232 66 -382 46z m409
-166 c0 -13 -3 -13 -15 -3 -8 7 -15 16 -15 21 0 5 7 6 15 3 8 -4 15 -13 15
-21z m213 -1363 c-7 -28 -13 -25 -13 6 0 14 4 23 9 20 5 -3 7 -15 4 -26z
m-119 -15 c-1 -5 -15 -16 -33 -24 -17 -8 -31 -21 -31 -28 0 -17 -10 -16 -34 2
-17 13 -17 15 -3 15 9 0 23 11 32 24 10 15 24 23 43 22 15 -1 27 -5 26 -11z
m-1424 -295 c0 -5 -4 -10 -10 -10 -5 0 -10 5 -10 10 0 6 5 10 10 10 6 0 10 -4
10 -10z m-403 -412 c-7 -24 -18 -38 -28 -38 -9 0 -19 -7 -23 -15 -3 -8 -10
-15 -16 -15 -6 0 -7 6 -1 18 5 9 14 29 21 44 8 17 18 24 28 21 12 -5 14 -1 8
23 -7 26 -6 27 8 14 12 -13 13 -21 3 -52z m-147 27 c-7 -9 -15 -13 -19 -10 -3
3 1 10 9 15 21 14 24 12 10 -5z m60 -85 c0 -5 -4 -10 -10 -10 -5 0 -10 5 -10
10 0 6 5 10 10 10 6 0 10 -4 10 -10z m-206 -111 c-3 -5 -10 -7 -15 -3 -5 3 -7
10 -3 15 3 5 10 7 15 3 5 -3 7 -10 3 -15z m-199 -159 c3 -5 1 -10 -4 -10 -6 0
-11 5 -11 10 0 6 2 10 4 10 3 0 8 -4 11 -10z m-55 -54 c0 -11 -19 -15 -25 -6
-3 5 1 10 9 10 9 0 16 -2 16 -4z m-150 -166 c0 -5 -2 -10 -4 -10 -3 0 -8 5
-11 10 -3 6 -1 10 4 10 6 0 11 -4 11 -10z m90 -125 c0 -11 -29 -30 -35 -23 -2
2 1 13 6 26 9 24 29 22 29 -3z m-100 -10 c0 -8 -7 -15 -15 -15 -17 0 -20 -16
-5 -25 16 -10 11 -22 -11 -28 -18 -5 -20 -2 -17 18 3 13 1 29 -3 36 -11 19 -1
29 27 29 15 0 24 -6 24 -15z m-96 -64 c3 -5 -1 -12 -10 -15 -20 -8 -29 -1 -19
13 8 13 22 14 29 2z m6 -57 c0 -8 7 -14 15 -14 8 0 15 9 15 20 0 11 7 20 15
20 11 0 14 -7 9 -25 -4 -15 -2 -25 5 -25 24 0 9 -18 -19 -23 -28 -6 -43 -27
-20 -27 6 0 8 -10 4 -24 -4 -17 0 -27 13 -34 17 -10 16 -11 -7 -20 -37 -15
-56 16 -63 97 -3 36 -3 69 -1 73 7 11 34 -3 34 -18z m100 -126 c0 -6 -7 -5
-15 2 -8 7 -15 17 -15 22 0 6 7 5 15 -2 8 -7 15 -17 15 -22z m-163 -350 c-3
-8 -6 -5 -6 6 -1 11 2 17 5 13 3 -3 4 -12 1 -19z m-882 -448 c-3 -5 -10 -10
-16 -10 -5 0 -9 5 -9 10 0 6 7 10 16 10 8 0 12 -4 9 -10z m839 -126 c18 -7 21
-30 6 -39 -13 -8 -40 13 -40 31 0 15 10 17 34 8z"/>
<path d="M8321 12818 c-1 -43 8 -70 20 -62 13 7 10 34 -6 69 l-13 30 -1 -37z"/>
<path d="M8381 12658 c-1 -27 4 -48 9 -48 12 0 12 47 0 75 -6 15 -9 8 -9 -27z"/>
<path d="M8216 12261 c-3 -4 7 -24 22 -45 20 -28 31 -36 47 -32 11 3 28 6 38
6 12 0 17 8 17 30 0 17 -6 32 -12 34 -31 10 -108 15 -112 7z"/>
<path d="M7955 12120 c-3 -5 -1 -10 4 -10 6 0 11 5 11 10 0 6 -2 10 -4 10 -3
0 -8 -4 -11 -10z"/>
<path d="M6546 12061 c-4 -7 -5 -15 -2 -18 9 -9 19 4 14 18 -4 11 -6 11 -12 0z"/>
<path d="M7906 12062 c-3 -6 -1 -14 5 -17 14 -9 20 -2 10 14 -6 8 -11 9 -15 3z"/>
<path d="M7285 12023 c4 -10 10 -26 12 -35 6 -20 19 -23 28 -8 8 13 -11 46
-31 54 -12 5 -15 2 -9 -11z"/>
<path d="M7737 12019 c-21 -12 -23 -49 -2 -49 8 0 15 6 15 14 0 8 4 16 10 18
5 2 6 8 2 15 -5 8 -13 8 -25 2z"/>
<path d="M6740 11995 c0 -17 42 -30 67 -20 14 5 9 10 -22 21 -49 17 -45 17
-45 -1z"/>
<path d="M6856 12001 c-12 -5 -15 -10 -9 -14 6 -4 16 0 23 8 14 17 13 17 -14
6z"/>
<path d="M7597 12003 c-12 -11 -8 -23 9 -23 8 0 13 4 10 9 -4 5 0 12 6 14 9 4
8 6 -3 6 -9 1 -19 -2 -22 -6z"/>
<path d="M7912 11978 c-6 -17 -10 -34 -7 -36 7 -8 35 19 30 28 -3 5 -1 11 5
15 14 9 12 25 -3 25 -7 0 -18 -14 -25 -32z"/>
<path d="M7184 11986 c-3 -7 -4 -19 -2 -27 2 -9 -5 -13 -21 -11 -19 2 -21 0
-12 -11 6 -8 8 -16 5 -19 -2 -3 7 -8 21 -10 20 -4 25 -1 25 16 0 12 7 31 15
42 8 10 15 22 15 27 0 13 -40 7 -46 -7z"/>
<path d="M7136 11981 c-4 -5 -2 -12 3 -15 5 -4 12 -2 15 3 4 5 2 12 -3 15 -5
4 -12 2 -15 -3z"/>
<path d="M7052 11908 c4 -42 23 -46 42 -10 17 33 13 42 -21 42 -21 0 -24 -4
-21 -32z"/>
<path d="M7361 11899 c-1 -25 4 -39 14 -43 22 -8 31 22 12 37 -8 7 -17 19 -20
27 -3 8 -6 -1 -6 -21z"/>
<path d="M6820 11895 c0 -9 6 -12 15 -9 8 4 15 10 15 15 0 5 -7 9 -15 9 -8 0
-15 -7 -15 -15z"/>
<path d="M6938 11871 c-6 -43 0 -50 53 -57 51 -7 57 -12 37 -32 -7 -7 -9 -13
-5 -13 29 -5 81 -29 99 -46 17 -15 38 -11 38 8 0 5 -14 23 -30 39 -17 17 -26
30 -20 30 5 0 10 7 10 15 0 9 -6 15 -12 13 -22 -4 -59 13 -52 23 7 13 -25 38
-48 39 -20 0 -23 -13 -8 -41 9 -16 7 -19 -14 -19 -25 0 -39 20 -30 44 3 8 1
17 -4 20 -5 3 -12 -7 -14 -23z"/>
<path d="M7227 11863 c-13 -12 -7 -25 9 -19 10 4 13 2 8 -6 -5 -8 0 -9 15 -5
16 4 29 -2 44 -19 25 -29 75 -56 89 -48 11 7 -71 74 -92 74 -8 0 -24 7 -34 15
-22 17 -29 18 -39 8z"/>
<path d="M7483 11843 c2 -23 -3 -29 -22 -31 -17 -3 -20 -6 -11 -12 10 -6 10
-15 2 -40 -18 -50 19 -127 55 -113 16 6 17 30 1 35 -7 3 -12 24 -11 56 1 42 5
56 24 71 23 19 24 19 5 40 -27 29 -45 27 -43 -6z"/>
<path d="M6790 11850 c0 -5 7 -7 15 -4 8 4 15 8 15 10 0 2 -7 4 -15 4 -8 0
-15 -4 -15 -10z"/>
<path d="M7790 11850 c0 -5 5 -10 11 -10 5 0 7 5 4 10 -3 6 -8 10 -11 10 -2 0
-4 -4 -4 -10z"/>
<path d="M7920 11845 c0 -8 4 -15 10 -15 5 0 7 7 4 15 -4 8 -8 15 -10 15 -2 0
-4 -7 -4 -15z"/>
<path d="M7664 11841 c4 -6 0 -14 -10 -18 -24 -9 -54 -40 -54 -57 0 -9 9 -12
28 -9 l27 4 -27 -25 c-16 -14 -28 -29 -28 -34 0 -6 -7 -12 -15 -16 -8 -3 -15
-11 -15 -17 0 -9 5 -8 18 2 9 8 28 20 40 27 21 12 26 11 38 -5 14 -19 15 -22
17 -63 2 -19 8 -26 27 -28 23 -2 24 -1 8 11 -20 15 -24 37 -8 37 6 0 10 6 10
13 0 16 -42 57 -58 57 -15 0 -15 15 -1 41 7 15 7 24 -2 35 -9 11 -8 14 5 14
18 0 22 25 4 36 -7 4 -8 3 -4 -5z"/>
<path d="M6780 11820 c0 -5 5 -10 10 -10 6 0 10 5 10 10 0 6 -4 10 -10 10 -5
0 -10 -4 -10 -10z"/>
<path d="M6855 11820 c-3 -6 1 -13 9 -16 22 -8 68 4 61 16 -8 13 -62 13 -70 0z"/>
<path d="M7163 11816 c-25 -12 -30 -25 -10 -27 46 -4 76 9 77 34 0 10 -41 7
-67 -7z"/>
<path d="M7757 11823 c-4 -3 -7 -11 -7 -17 0 -6 5 -5 12 2 6 6 9 14 7 17 -3 3
-9 2 -12 -2z"/>
<path d="M6200 11800 c0 -5 7 -10 16 -10 8 0 12 5 9 10 -3 6 -10 10 -16 10 -5
0 -9 -4 -9 -10z"/>
<path d="M6732 11799 c2 -7 10 -15 17 -17 8 -3 12 1 9 9 -2 7 -10 15 -17 17
-8 3 -12 -1 -9 -9z"/>
<path d="M7695 11800 c-3 -5 1 -10 9 -10 9 0 16 5 16 10 0 6 -4 10 -9 10 -6 0
-13 -4 -16 -10z"/>
<path d="M6532 11772 c-14 -37 60 -39 93 -2 16 17 14 18 -36 17 -32 -1 -53 -7
-57 -15z"/>
<path d="M6978 11784 c-4 -3 -12 -7 -20 -8 -35 -6 -58 -19 -58 -32 0 -8 7 -14
15 -14 8 0 15 7 15 15 0 18 2 18 51 3 22 -6 39 -17 39 -25 0 -7 6 -13 14 -13
8 0 22 -3 31 -7 16 -6 16 -4 0 20 -9 15 -21 24 -26 21 -12 -7 -37 18 -31 34 4
12 -20 17 -30 6z"/>
<path d="M7417 11784 c-8 -8 1 -24 14 -24 5 0 9 7 9 15 0 15 -12 20 -23 9z"/>
<path d="M6443 11763 c-7 -2 -13 -12 -13 -22 0 -9 -5 -22 -11 -28 -6 -6 -8
-16 -5 -22 11 -18 24 -13 28 12 2 12 10 22 18 22 17 0 50 25 50 37 0 9 -47 10
-67 1z"/>
<path d="M7340 11734 c0 -12 6 -15 24 -10 15 4 26 1 29 -7 4 -9 7 -9 18 0 16
16 13 19 -33 27 -31 6 -38 4 -38 -10z"/>
<path d="M7532 11733 c9 -10 13 -25 11 -33 -3 -8 2 -5 12 8 19 26 13 42 -17
42 -19 0 -20 -2 -6 -17z"/>
<path d="M7790 11735 c0 -8 5 -15 10 -15 6 0 10 7 10 15 0 8 -4 15 -10 15 -5
0 -10 -7 -10 -15z"/>
<path d="M6030 11708 c0 -7 -3 -24 -7 -38 -6 -22 -5 -24 10 -11 18 15 23 61 7
61 -5 0 -10 -6 -10 -12z"/>
<path d="M7850 11690 c0 -5 9 -10 20 -10 11 0 20 5 20 10 0 6 -9 10 -20 10
-11 0 -20 -4 -20 -10z"/>
<path d="M7190 11670 c0 -5 5 -10 10 -10 6 0 10 5 10 10 0 6 -4 10 -10 10 -5
0 -10 -4 -10 -10z"/>
<path d="M6000 11645 c-1 -5 -2 -13 -1 -17 0 -5 -8 -8 -19 -8 -13 0 -20 -7
-20 -20 0 -15 7 -20 24 -20 31 0 34 7 25 45 -3 17 -8 26 -9 20z"/>
<path d="M7623 11628 c2 -7 10 -13 17 -13 7 0 15 6 18 13 2 7 -5 12 -18 12
-13 0 -20 -5 -17 -12z"/>
<path d="M6046 11599 c-3 -13 -7 -42 -10 -64 l-5 -40 16 30 c9 17 16 44 14 60
-4 39 -9 43 -15 14z"/>
<path d="M6337 11574 c-11 -11 -8 -54 3 -54 5 0 7 -7 3 -16 -3 -8 -11 -13 -17
-11 -17 7 -8 -49 10 -64 8 -6 14 -16 14 -22 0 -7 -4 -7 -12 1 -12 12 -98 17
-98 6 0 -3 10 -14 22 -24 22 -17 21 -17 -38 -28 -65 -11 -76 -9 -67 13 3 8 0
15 -5 15 -6 0 -12 12 -14 28 l-4 27 -11 -25 c-10 -22 -12 -23 -14 -5 -1 11 -1
23 0 27 0 4 -6 5 -14 2 -17 -7 -21 -34 -5 -34 6 0 10 -12 10 -26 0 -15 4 -23
10 -19 6 4 17 2 24 -5 18 -14 9 -50 -18 -72 -12 -10 -16 -17 -8 -18 19 0 14
-17 -8 -23 -11 -3 -20 -2 -20 2 0 4 -16 13 -35 21 -19 8 -42 24 -50 36 -13 20
-12 22 13 22 15 0 30 -4 33 -9 3 -5 14 -11 25 -13 16 -3 20 1 18 22 -2 37 -2
38 -16 24 -17 -17 -28 -15 -28 7 0 23 -45 34 -60 16 -6 -7 -12 -40 -14 -74
l-4 -61 40 0 c23 0 37 -4 33 -10 -3 -5 -13 -10 -22 -10 -9 0 -29 -15 -44 -32
l-28 -33 -1 38 c0 23 -6 40 -14 43 -22 8 -51 -27 -51 -61 0 -25 4 -30 23 -27
18 1 23 -2 20 -15 -3 -12 -12 -17 -26 -16 -12 2 -22 -2 -22 -7 0 -14 -28 -12
-33 3 -3 9 -7 9 -20 -2 -14 -11 -18 -11 -23 3 -3 9 -1 23 6 31 10 12 10 18 -1
32 -8 9 -12 25 -11 36 3 15 0 18 -12 14 -13 -5 -16 2 -16 37 0 50 -11 58 -65
49 -30 -5 -33 -8 -23 -20 10 -12 9 -18 -7 -29 -10 -8 -22 -14 -27 -14 -18 0
-7 -28 13 -33 15 -4 20 -11 16 -21 -5 -11 4 -20 28 -30 37 -16 44 -36 21 -55
-13 -11 -19 -91 -7 -91 17 0 31 27 31 57 0 36 2 38 28 24 19 -10 42 -18 56
-19 23 -1 35 -52 13 -52 -9 0 -14 -12 -15 -30 0 -21 4 -30 15 -30 12 0 14 -8
10 -35 -3 -21 -2 -33 4 -30 5 4 9 12 9 18 0 7 5 19 10 27 8 12 11 13 19 1 7
-11 13 -10 34 3 14 9 27 25 30 35 4 19 56 35 80 25 8 -3 20 2 27 11 16 19 40
19 54 -1 13 -18 46 -9 46 12 0 8 6 14 14 14 7 0 16 9 19 20 6 22 53 38 69 22
8 -8 3 -14 -15 -23 -15 -7 -27 -16 -27 -21 0 -4 -6 -8 -14 -8 -8 0 -18 -5 -22
-11 -5 -8 11 -9 57 -4 55 6 68 12 95 41 30 32 33 33 90 27 32 -3 81 -11 107
-17 57 -15 107 -10 107 11 0 11 23 13 143 8 182 -7 215 -12 227 -36 9 -16 7
-19 -15 -19 -14 0 -25 -6 -25 -13 0 -23 13 -28 31 -11 17 15 19 15 25 1 10
-26 -5 -39 -39 -32 -26 5 -29 4 -14 -5 18 -12 23 -40 7 -40 -6 0 -21 -9 -33
-20 -12 -12 -31 -20 -42 -18 -11 1 -31 -4 -44 -11 -13 -7 -36 -15 -50 -16 -46
-6 -85 -16 -117 -31 -17 -7 -55 -20 -85 -28 -136 -38 -192 -62 -247 -108 -18
-16 -42 -28 -52 -28 -16 0 -20 -7 -20 -31 0 -23 -4 -30 -14 -26 -16 6 -29 -21
-30 -63 -1 -18 -7 -25 -21 -26 -34 -2 -36 -3 -25 -24 9 -17 17 -20 46 -14 22
4 42 1 57 -8 13 -9 32 -12 47 -8 14 4 36 3 49 -2 14 -5 32 -6 40 -2 9 3 92 8
185 10 140 4 178 2 220 -12 28 -9 57 -18 64 -20 7 -2 10 -8 7 -14 -4 -7 6 -9
29 -6 41 5 49 -10 11 -20 -13 -3 -29 -12 -36 -20 -6 -8 -22 -14 -35 -14 -13 0
-24 -4 -24 -10 0 -5 -9 -10 -20 -10 -22 0 -27 -15 -8 -26 6 -4 16 0 23 9 17
24 25 21 37 -13 8 -24 15 -29 29 -25 11 4 19 2 19 -4 0 -6 -3 -11 -7 -11 -5 0
-14 -4 -21 -9 -21 -13 48 -83 81 -83 14 0 28 -6 31 -13 3 -8 13 -11 24 -8 11
2 23 0 26 -6 9 -15 26 -14 26 1 0 6 7 19 16 29 16 17 17 17 34 -3 17 -22 40
-18 40 7 0 11 6 12 26 5 31 -12 68 4 60 26 -3 9 1 14 13 14 10 0 30 9 44 20
28 22 47 26 47 9 0 -6 5 -7 13 -2 6 4 25 8 40 9 15 1 36 9 46 18 22 20 31 20
31 1 0 -8 -9 -15 -19 -15 -17 0 -18 -3 -8 -25 13 -27 29 -31 49 -12 39 35 56
38 84 12 37 -34 47 -32 40 9 -5 24 -2 37 9 46 16 14 21 55 5 45 -12 -7 -13 15
-1 33 6 10 10 8 15 -10 6 -21 7 -22 20 -5 7 9 11 28 8 42 -3 16 2 33 13 45 17
19 17 20 -6 29 -26 9 -57 56 -45 68 4 4 9 -3 13 -15 3 -13 13 -22 25 -22 11 0
16 4 13 11 -4 6 2 17 14 25 22 16 20 34 -3 34 -8 0 -17 -10 -21 -22 -7 -22 -8
-21 -14 7 -8 37 -36 45 -45 13 -5 -19 -8 -20 -16 -8 -5 8 -10 25 -10 38 0 18
-6 22 -30 22 -19 0 -30 5 -30 14 0 8 -4 17 -9 20 -18 12 -80 16 -85 7 -4 -6
-13 -8 -21 -5 -11 5 -12 11 -4 26 6 11 8 26 5 34 -4 12 -1 14 14 9 17 -6 20
-2 20 30 0 42 15 74 43 94 17 12 18 15 3 23 -20 11 -21 28 -1 28 8 0 20 9 27
20 16 25 34 26 47 3 8 -15 12 -16 23 -5 10 10 10 17 0 32 -18 29 -16 30 32 30
26 0 48 6 56 15 13 15 50 21 50 8 0 -5 -7 -17 -15 -27 -13 -17 -12 -21 7 -34
19 -14 22 -13 34 3 13 17 14 17 14 2 0 -9 4 -17 10 -17 5 0 13 -18 16 -40 6
-35 8 -38 19 -23 11 15 13 15 24 -5 7 -14 8 -23 1 -27 -6 -4 -9 -27 -8 -52 2
-36 7 -47 26 -54 13 -5 22 -17 22 -29 0 -12 -4 -19 -9 -16 -5 3 -14 -7 -21
-23 -13 -33 -4 -79 12 -63 7 7 20 4 39 -10 41 -30 46 -16 15 37 -15 25 -26 53
-24 63 4 23 54 -29 80 -85 10 -24 23 -43 29 -43 5 0 14 -11 20 -24 10 -22 13
-23 39 -9 35 17 97 20 112 5 9 -9 5 -19 -17 -42 -22 -23 -38 -30 -66 -30 -21
0 -41 5 -44 10 -3 6 -11 10 -17 10 -20 0 26 -42 64 -60 33 -14 144 -111 190
-165 29 -34 48 -46 66 -42 14 4 13 6 -5 12 -24 8 -32 40 -11 47 7 3 5 13 -8
33 -17 26 -17 28 -2 22 10 -3 23 -1 30 6 8 9 35 12 92 9 79 -4 82 -3 109 26
27 28 29 35 29 118 0 129 -6 148 -71 211 -46 44 -61 54 -83 50 -35 -5 -39 24
-6 45 22 15 22 15 -8 11 -29 -5 -31 -3 -37 32 -8 47 -1 62 37 83 36 19 173 25
219 9 18 -6 32 -6 38 0 18 18 12 118 -10 169 -20 44 -101 161 -154 221 l-19
22 -29 -21 c-27 -21 -56 -21 -126 -2 -15 4 -27 -1 -39 -15 -22 -25 -52 -28
-50 -4 1 12 -9 18 -38 21 l-39 4 7 -35 6 -34 -57 -9 c-50 -8 -58 -12 -61 -32
-3 -16 -8 -22 -19 -18 -8 3 -24 6 -36 6 -12 0 -29 5 -37 10 -13 9 -13 12 3 21
9 6 15 14 12 20 -11 16 -25 10 -35 -16 -11 -29 -28 -32 -45 -9 -10 15 -14 14
-39 -9 -26 -24 -26 -26 -8 -36 13 -7 22 -7 30 1 9 9 15 9 24 0 9 -9 7 -12 -10
-12 -12 0 -22 -4 -22 -10 0 -5 -17 -10 -39 -10 -30 0 -46 7 -76 36 -26 24 -40
32 -45 24 -12 -19 -23 6 -23 52 0 44 -24 68 -67 68 -14 0 -31 5 -37 11 -8 8
-21 7 -47 -2 -19 -7 -39 -9 -43 -5 -5 5 -2 11 5 13 6 3 12 9 12 14 0 6 -6 9
-12 8 -41 -5 -66 2 -71 22 -5 17 -11 19 -39 14 -18 -3 -44 -2 -58 3 -21 8 -30
5 -55 -22 l-30 -31 -165 3 c-91 1 -181 3 -200 3 -19 0 -49 -2 -66 -6 -21 -5
-34 -2 -42 8 -9 10 -25 13 -57 9 -30 -3 -45 -1 -45 7 0 6 -9 11 -19 11 -35 0
-34 49 2 50 18 0 4 20 -25 34 -55 28 -138 14 -187 -31 -18 -16 -91 -25 -83
-10 5 10 14 45 14 54 0 4 9 13 21 20 20 10 20 12 4 18 -21 9 -47 -11 -45 -33
3 -34 -3 -48 -23 -60 -27 -17 -49 -1 -30 21 25 31 14 117 -12 91z m1053 -164
c-19 -13 -30 -13 -30 0 0 6 10 10 23 10 18 0 19 -2 7 -10z m270 -110 c0 -5 -2
-10 -4 -10 -3 0 -8 5 -11 10 -3 6 -1 10 4 10 6 0 11 -4 11 -10z m-1947 -51
c-17 -17 -37 -1 -22 17 8 10 15 12 23 4 7 -7 7 -13 -1 -21z m273 -175 c-5 -14
-46 -20 -46 -7 0 4 10 18 23 31 18 20 23 21 25 7 2 -9 1 -23 -2 -31z m2011
-163 c1 -24 -4 -44 -13 -51 -8 -7 -14 -19 -14 -26 0 -20 -18 -17 -25 5 -7 22
3 51 17 51 6 0 8 11 4 24 -6 24 0 36 19 36 6 0 11 -18 12 -39z m405 -68 c9
-20 15 -40 12 -44 -8 -13 -36 3 -30 17 3 8 0 13 -7 11 -7 -1 -12 4 -11 11 3
36 5 42 12 42 4 -1 15 -17 24 -37z m-452 -73 c0 -11 -7 -20 -15 -20 -13 0 -14
4 -5 20 6 11 13 20 15 20 3 0 5 -9 5 -20z m-885 -151 c5 -22 3 -34 -6 -40 -21
-13 -32 6 -24 40 9 40 22 40 30 0z m-357 -24 c17 -36 15 -45 -7 -45 -49 0 -70
38 -33 59 25 15 28 14 40 -14z m836 -280 c-4 -8 -7 -15 -9 -15 -2 0 -5 7 -9
15 -3 9 0 15 9 15 9 0 12 -6 9 -15z m-134 -5 c0 -5 -4 -10 -10 -10 -5 0 -10 5
-10 10 0 6 5 10 10 10 6 0 10 -4 10 -10z"/>
<path d="M7551 11564 c0 -11 3 -14 6 -6 3 7 2 16 -1 19 -3 4 -6 -2 -5 -13z"/>
<path d="M6170 11518 c0 -19 2 -20 10 -8 13 19 13 30 0 30 -5 0 -10 -10 -10
-22z"/>
<path d="M6490 11530 c0 -5 5 -10 10 -10 6 0 10 5 10 10 0 6 -4 10 -10 10 -5
0 -10 -4 -10 -10z"/>
<path d="M6205 11500 c-7 -12 2 -30 16 -30 12 0 12 27 0 35 -5 3 -12 1 -16 -5z"/>
<path d="M6147 11483 c-4 -3 -7 -10 -7 -14 0 -11 29 -19 35 -10 6 11 -20 33
-28 24z"/>
<path d="M6776 11475 c-11 -8 -28 -15 -38 -15 -21 0 -24 -16 -4 -23 27 -10 61
7 62 31 0 12 0 22 0 22 -1 0 -10 -7 -20 -15z"/>
<path d="M6013 11460 c-13 -5 -23 -18 -23 -29 0 -15 5 -18 23 -13 24 6 37 19
37 40 0 14 -6 14 -37 2z"/>
<path d="M6236 11454 c-4 -9 -13 -13 -23 -10 -14 5 -18 -1 -20 -24 -2 -24 2
-30 17 -30 13 0 20 7 20 20 0 10 9 24 20 30 11 6 18 15 15 21 -9 14 -22 11
-29 -7z"/>
<path d="M6050 11396 c0 -9 5 -16 10 -16 6 0 10 4 10 9 0 6 -4 13 -10 16 -5 3
-10 -1 -10 -9z"/>
<path d="M8415 11370 c3 -5 10 -10 16 -10 5 0 9 5 9 10 0 6 -7 10 -16 10 -8 0
-12 -4 -9 -10z"/>
<path d="M7776 11321 c-4 -7 -5 -15 -2 -18 9 -9 19 4 14 18 -4 11 -6 11 -12 0z"/>
<path d="M5512 11215 c-7 -14 -12 -35 -12 -45 0 -13 -5 -18 -15 -14 -20 8 -20
-20 1 -51 18 -28 34 -33 34 -10 0 8 -5 15 -11 15 -21 0 20 30 43 31 13 0 31 4
41 7 15 7 16 10 3 27 -11 16 -17 17 -29 7 -25 -21 -50 -4 -43 29 7 36 3 37
-12 4z"/>
<path d="M5475 11190 c3 -5 8 -10 11 -10 2 0 4 5 4 10 0 6 -5 10 -11 10 -5 0
-7 -4 -4 -10z"/>
<path d="M5560 11125 c0 -14 21 -45 30 -45 18 0 10 29 -10 40 -11 6 -20 8 -20
5z"/>
<path d="M5405 11090 c-3 -5 1 -10 10 -10 9 0 13 5 10 10 -3 6 -8 10 -10 10
-2 0 -7 -4 -10 -10z"/>
<path d="M5611 11043 c-17 -19 -2 -34 27 -27 27 8 28 16 4 30 -13 9 -21 8 -31
-3z"/>
<path d="M5770 11049 c0 -5 5 -7 10 -4 6 3 10 8 10 11 0 2 -4 4 -10 4 -5 0
-10 -5 -10 -11z"/>
<path d="M5540 11014 c0 -8 11 -14 25 -14 14 0 25 4 25 9 0 5 -11 11 -25 13
-17 4 -25 1 -25 -8z"/>
<path d="M5770 10995 c0 -8 9 -15 20 -15 13 0 18 5 14 15 -4 8 -12 15 -20 15
-8 0 -14 -7 -14 -15z"/>
<path d="M5441 10987 c2 -1 11 -8 20 -15 14 -10 18 -10 23 3 4 11 -1 15 -21
15 -14 0 -24 -1 -22 -3z"/>
<path d="M7675 10974 c-13 -10 -15 -14 -4 -14 20 0 43 16 32 23 -4 3 -17 -1
-28 -9z"/>
<path d="M5553 10963 c-17 -6 -17 -56 -1 -51 7 3 15 16 19 31 7 27 5 30 -18
20z"/>
<path d="M6140 10950 c0 -5 5 -10 10 -10 6 0 10 5 10 10 0 6 -4 10 -10 10 -5
0 -10 -4 -10 -10z"/>
<path d="M5975 10930 c-3 -10 -1 -29 5 -41 11 -19 13 -20 28 -6 13 13 13 21 4
42 -14 30 -28 32 -37 5z"/>
<path d="M6918 10943 c6 -2 18 -2 25 0 6 3 1 5 -13 5 -14 0 -19 -2 -12 -5z"/>
<path d="M5353 10876 c7 -13 15 -22 18 -20 12 7 -2 44 -16 44 -10 0 -11 -5 -2
-24z"/>
<path d="M5647 10883 c-13 -12 -7 -21 17 -25 24 -5 42 13 29 26 -8 8 -38 8
-46 -1z"/>
<path d="M5638 10773 c7 -3 16 -2 19 1 4 3 -2 6 -13 5 -11 0 -14 -3 -6 -6z"/>
<path d="M5357 10763 c-4 -3 -7 -11 -7 -17 0 -6 5 -5 12 2 6 6 9 14 7 17 -3 3
-9 2 -12 -2z"/>
<path d="M5282 10738 c5 -15 37 -18 41 -3 1 6 -9 12 -22 13 -16 3 -22 -1 -19
-10z"/>
<path d="M5360 10620 c0 -5 5 -10 10 -10 6 0 10 5 10 10 0 6 -4 10 -10 10 -5
0 -10 -4 -10 -10z"/>
<path d="M5189 10464 c-9 -11 -10 -20 -3 -32 19 -30 33 -25 31 12 -2 40 -8 44
-28 20z"/>
<path d="M7740 10405 c-8 -9 -8 -15 -2 -15 12 0 26 19 19 26 -2 2 -10 -2 -17
-11z"/>
<path d="M5150 10400 c0 -5 7 -10 15 -10 8 0 15 5 15 10 0 6 -7 10 -15 10 -8
0 -15 -4 -15 -10z"/>
<path d="M5110 10359 c0 -11 5 -17 10 -14 6 3 10 13 10 21 0 8 -4 14 -10 14
-5 0 -10 -9 -10 -21z"/>
<path d="M7725 10280 c-20 -38 -7 -60 34 -59 14 0 20 3 13 6 -6 2 -10 9 -6 14
3 5 0 9 -6 9 -8 0 -10 9 -6 24 9 37 -11 41 -29 6z"/>
<path d="M7800 10265 c0 -9 6 -12 15 -9 8 4 15 10 15 15 0 5 -7 9 -15 9 -8 0
-15 -7 -15 -15z"/>
<path d="M7550 10210 c0 -13 7 -20 20 -20 19 0 19 1 3 20 -10 11 -19 20 -20
20 -2 0 -3 -9 -3 -20z"/>
<path d="M7596 10165 c-7 -29 0 -48 15 -40 12 8 12 65 0 65 -5 0 -12 -11 -15
-25z"/>
<path d="M7190 10151 c0 -6 5 -13 10 -16 6 -3 10 1 10 9 0 9 -4 16 -10 16 -5
0 -10 -4 -10 -9z"/>
<path d="M7554 10091 c4 -6 14 -11 22 -11 20 0 17 -21 -10 -54 -16 -19 -28
-26 -37 -21 -8 5 -11 5 -8 1 3 -3 -14 -26 -37 -50 -41 -40 -44 -47 -44 -96 0
-37 -5 -56 -16 -65 -15 -10 -15 -13 0 -27 22 -23 23 -148 1 -148 -9 0 -15 -10
-15 -26 0 -14 4 -23 9 -20 11 7 67 -55 76 -84 5 -15 12 -19 23 -15 43 18 55
18 49 2 -4 -10 -1 -17 6 -17 14 0 42 -58 33 -67 -3 -3 -14 5 -25 18 -11 13
-20 20 -21 16 0 -4 -10 1 -22 12 -27 26 -51 11 -42 -25 5 -20 3 -24 -19 -24
-34 0 -53 -24 -40 -53 10 -21 8 -22 -38 -23 -32 -1 -50 4 -53 12 -6 16 -36 7
-36 -11 0 -15 -53 -27 -86 -19 -18 5 -24 2 -24 -11 0 -14 6 -16 30 -11 34 6
37 -2 15 -45 -17 -32 -35 -30 -35 4 0 17 -2 19 -10 7 -8 -12 -11 -12 -28 3
-18 16 -20 16 -37 -3 -13 -15 -21 -17 -31 -9 -7 6 -19 9 -26 6 -8 -3 -2 -9 14
-15 34 -14 45 -32 27 -46 -15 -12 -53 -67 -54 -78 0 -3 -3 -10 -7 -14 -5 -4
-8 -15 -8 -24 0 -9 -14 -36 -30 -58 -17 -23 -27 -42 -24 -42 4 0 2 -6 -5 -13
-6 -8 -13 -45 -17 -84 -8 -81 4 -113 41 -113 20 0 25 -5 25 -24 0 -16 7 -26
21 -29 25 -7 22 -43 -3 -41 -9 1 -21 -9 -27 -22 -8 -18 -7 -27 6 -39 20 -21
42 -3 24 19 -10 12 -9 17 8 25 30 17 34 14 28 -23 -3 -19 -3 -44 0 -55 7 -27
40 -27 48 0 6 18 12 20 45 15 32 -5 40 -2 53 17 8 13 16 32 19 42 2 15 10 19
30 17 27 -3 68 26 68 49 0 7 10 9 28 4 15 -4 76 -9 136 -11 60 -2 112 -6 114
-9 7 -7 57 -6 76 1 24 9 19 31 -9 38 -28 7 -33 24 -10 32 8 4 15 15 15 25 0
10 6 19 13 19 6 0 22 3 34 6 16 4 23 0 28 -15 6 -20 45 -31 45 -12 0 5 14 14
30 20 25 8 32 7 36 -4 7 -17 59 -36 79 -29 8 4 15 1 15 -5 0 -6 -6 -11 -13
-11 -7 0 -18 -5 -25 -12 -18 -18 3 -46 33 -42 20 2 29 -4 38 -24 15 -37 17
-38 26 -23 7 10 13 10 29 2 11 -6 35 -11 53 -11 18 0 37 -7 44 -17 19 -25 42
-9 50 36 8 48 4 57 -29 63 -22 4 -24 3 -16 -13 8 -14 6 -17 -10 -16 -21 1 -37
27 -17 27 7 0 4 5 -5 11 -32 18 -21 32 19 24 21 -4 42 -9 47 -13 6 -3 31 -5
56 -3 46 2 46 2 97 -64 36 -47 56 -85 69 -131 9 -35 21 -64 25 -64 5 0 9 -7 9
-16 0 -10 7 -14 22 -12 17 2 23 10 25 32 1 16 7 34 13 40 5 5 10 20 10 32 0
13 5 26 10 29 6 3 10 17 10 30 0 13 10 33 21 44 25 23 35 69 45 202 6 89 4
105 -21 190 -16 52 -34 101 -42 110 -7 8 -13 26 -13 40 0 16 -11 31 -30 44
-16 11 -30 23 -30 28 0 4 -6 7 -13 7 -28 0 -117 111 -117 146 0 13 -9 29 -20
36 -11 7 -20 18 -20 24 0 7 -9 14 -20 17 -11 3 -23 14 -27 25 -10 25 -61 67
-93 76 -18 5 -21 5 -10 -3 12 -9 12 -11 -3 -17 -9 -3 -23 -2 -30 3 -20 15 -77
16 -76 1 1 -23 14 -50 24 -49 14 1 11 -42 -3 -47 -6 -2 -12 1 -12 7 0 17 -109
14 -116 -3 -4 -10 -22 -13 -65 -13 -32 1 -59 3 -59 6 0 2 8 10 17 17 24 17 7
32 -18 16 -16 -10 -20 -10 -25 2 -3 9 -14 18 -24 21 -23 7 -34 36 -18 47 7 4
39 8 71 8 32 0 74 7 95 16 34 14 56 20 178 43 22 4 55 18 73 30 34 25 33 34
-14 73 -52 45 -330 4 -391 -57 -7 -6 -26 -23 -44 -38 -17 -15 -29 -31 -25 -36
3 -5 1 -12 -5 -16 -5 -3 -10 -14 -10 -24 0 -26 -41 -36 -47 -12 -3 13 -11 17
-24 14 -10 -3 -19 -1 -19 4 0 5 -11 15 -25 21 -15 7 -22 17 -19 26 3 8 -4 23
-16 34 -13 12 -19 26 -15 32 4 7 9 37 12 68 3 45 9 59 31 76 14 12 29 20 32
19 3 -1 16 5 29 13 12 9 32 13 43 11 16 -5 19 -2 15 14 -3 12 0 22 9 26 8 3
14 14 14 24 0 26 26 24 33 -2 5 -19 7 -20 36 -5 48 25 65 76 25 76 -8 0 -14 6
-14 14 0 23 -19 30 -46 17 -13 -6 -35 -16 -49 -22 -19 -10 -29 -9 -50 5 -14 9
-25 21 -25 27 0 6 -4 8 -9 5 -5 -4 -11 -2 -13 3 -1 4 -14 12 -27 16 -16 5 -21
4 -17 -4z m616 -607 c0 -8 -19 -13 -24 -6 -3 5 1 9 9 9 8 0 15 -2 15 -3z
m-109 -356 c11 -11 17 -23 15 -25 -2 -2 -26 -6 -52 -8 -27 -3 -65 -9 -84 -15
-50 -14 -113 -13 -108 3 7 18 49 37 88 37 19 0 46 7 60 15 35 20 60 18 81 -7z
m158 -26 l44 -7 -54 -28 -54 -28 -22 26 c-13 14 -23 30 -23 36 0 10 44 11 109
1z m-404 -33 c6 -9 -34 -49 -49 -49 -6 0 -45 -14 -86 -31 -41 -17 -84 -33 -95
-35 -11 -2 -34 -6 -51 -10 -23 -4 -33 -2 -37 10 -7 18 -7 18 52 36 24 8 46 22
48 31 5 17 63 39 105 39 13 0 32 6 42 13 19 14 62 11 71 -4z m665 -117 c0 -41
-9 -36 -27 16 -18 51 -16 58 7 37 13 -12 20 -31 20 -53z m-90 -101 c0 -13 -26
-32 -33 -24 -8 7 11 33 24 33 5 0 9 -4 9 -9z m90 -20 c0 -5 -7 -17 -16 -25
-16 -17 -28 -21 -21 -8 2 4 7 15 10 25 7 18 27 24 27 8z"/>
<path d="M5080 9867 c0 -29 23 -52 45 -43 29 11 15 49 -22 60 -20 6 -23 4 -23
-17z"/>
<path d="M4580 9780 c0 -5 9 -10 21 -10 15 0 19 -5 14 -19 -3 -11 0 -21 9 -24
19 -8 26 1 26 35 0 25 -3 28 -35 28 -19 0 -35 -4 -35 -10z"/>
<path d="M4256 9728 c-8 -18 -39 -59 -70 -90 -65 -68 -90 -103 -82 -117 4 -5
-5 -42 -19 -82 -14 -40 -25 -92 -25 -116 0 -37 -4 -45 -25 -55 -26 -12 -26
-16 -5 -73 5 -12 20 -32 35 -45 15 -14 44 -42 64 -62 35 -37 37 -37 81 -27 39
9 55 7 123 -16 95 -33 159 -36 209 -12 48 23 56 52 30 109 -13 30 -37 56 -80
88 -34 24 -65 53 -68 62 -5 17 6 89 27 170 6 24 19 43 37 53 15 9 19 14 10 11
-19 -6 -25 9 -8 19 6 3 10 16 10 29 0 24 35 64 46 53 4 -3 7 -18 7 -33 0 -14
2 -22 6 -17 3 5 14 12 24 16 13 5 17 13 12 28 -7 20 -5 21 41 14 l49 -6 0 30
c0 35 1 35 -26 21 -15 -9 -19 -7 -19 5 0 13 -4 14 -21 4 -17 -9 -25 -7 -46 13
l-25 23 6 -22 c3 -13 8 -33 11 -45 l5 -23 -12 23 c-10 19 -16 21 -47 16 l-36
-7 24 27 c27 29 23 43 -7 27 -12 -6 -22 -23 -24 -38 -2 -20 -9 -29 -25 -31
-22 -3 -29 -21 -24 -59 1 -7 -5 -13 -14 -13 -8 0 -15 4 -15 9 0 4 -18 31 -41
60 -22 28 -44 63 -48 78 -10 39 -28 39 -45 1z m-13 -281 c-4 -12 -8 -31 -8
-42 -1 -11 -3 -36 -4 -55 l-2 -35 -15 28 c-8 15 -21 27 -29 27 -19 0 -19 10 0
34 8 10 17 38 21 61 6 43 6 43 25 24 15 -15 18 -26 12 -42z m121 -83 c3 -9 6
-40 6 -69 0 -52 1 -53 45 -79 43 -26 58 -46 34 -46 -7 0 -22 -11 -35 -26 -13
-14 -24 -20 -24 -13 0 8 -4 9 -13 0 -10 -8 -17 -7 -26 2 -10 9 -15 9 -24 -3
-16 -20 -87 -15 -87 6 0 8 -4 14 -9 14 -17 0 -41 31 -41 51 0 11 8 23 18 26
26 10 65 53 96 106 29 48 49 59 60 31z"/>
<path d="M8369 9706 c-75 -70 -87 -110 -43 -145 20 -16 31 -18 45 -10 10 5 19
15 19 22 0 7 16 23 36 35 35 23 36 25 30 70 -10 71 -33 79 -87 28z"/>
<path d="M3620 9675 c0 -8 5 -15 10 -15 6 0 10 7 10 15 0 8 -4 15 -10 15 -5 0
-10 -7 -10 -15z"/>
<path d="M4732 9638 c3 -7 13 -15 22 -16 12 -3 17 1 14 10 -3 7 -13 15 -22 16
-12 3 -17 -1 -14 -10z"/>
<path d="M3630 9615 c0 -8 5 -15 10 -15 6 0 10 -9 10 -19 0 -11 5 -23 11 -27
7 -4 9 1 5 15 -3 11 -9 30 -12 41 -6 23 -24 27 -24 5z"/>
<path d="M4520 9574 c0 -8 5 -12 10 -9 6 4 8 11 5 16 -9 14 -15 11 -15 -7z"/>
<path d="M4623 9583 c-18 -7 -16 -23 2 -23 8 0 15 7 15 15 0 8 -1 15 -2 14 -2
0 -9 -3 -15 -6z"/>
<path d="M4692 9578 c6 -18 22 -20 43 -3 19 14 18 14 -13 15 -22 0 -32 -4 -30
-12z"/>
<path d="M5008 9539 c-21 -21 -38 -45 -38 -54 0 -8 -3 -14 -7 -14 -20 3 -23
-2 -9 -17 9 -8 16 -25 16 -37 0 -18 -2 -19 -10 -7 -15 23 -24 3 -12 -25 15
-32 15 -65 2 -65 -13 0 -13 -27 -1 -32 5 -1 1 -21 -10 -42 -10 -22 -19 -50
-19 -62 0 -26 17 -71 36 -94 7 -8 15 -41 18 -73 4 -36 14 -66 25 -78 10 -11
30 -51 46 -90 15 -38 34 -76 42 -84 8 -8 16 -30 19 -47 4 -34 31 -79 51 -85
14 -5 -2 64 -19 85 -6 7 -9 13 -7 15 31 18 50 27 54 27 11 0 4 -39 -7 -43 -10
-3 -8 -10 5 -23 16 -18 17 -17 17 6 0 18 3 21 11 13 7 -7 25 -9 40 -6 27 5 29
3 29 -26 0 -26 4 -31 25 -32 14 -1 30 -2 37 -3 7 -1 13 14 13 35 1 30 -1 35
-16 32 -23 -6 -32 12 -19 37 8 14 17 19 30 15 27 -8 31 35 6 58 -10 9 -22 17
-26 17 -4 0 -11 29 -15 65 -3 36 -11 68 -17 71 -5 3 -7 17 -3 31 3 14 3 45 -1
68 -5 39 -9 43 -33 42 -22 -2 -25 2 -23 21 2 13 -3 25 -12 28 -9 3 -16 12 -16
19 0 6 -9 20 -19 29 -11 10 -21 30 -23 45 -2 18 -10 27 -25 29 -33 5 -28 28 7
36 34 6 41 35 14 57 -15 12 -19 11 -31 -8 -12 -18 -19 -21 -34 -12 -11 5 -19
20 -19 34 0 27 9 32 28 13 15 -15 24 -6 16 15 -7 19 -37 32 -42 18 -2 -6 -12
-11 -23 -11 -10 0 -19 -4 -19 -10 0 -5 -4 -10 -10 -10 -5 0 -10 7 -10 16 0 17
25 46 33 38 3 -3 15 -1 26 5 16 9 19 16 12 29 -6 9 -16 32 -23 50 -7 17 -15
32 -18 31 -3 -1 -22 -18 -42 -40z m28 -185 c1 -27 -10 -43 -28 -44 -10 0 -10
64 -1 74 14 13 28 -1 29 -30z m91 -166 c-3 -8 -6 -5 -6 6 -1 11 2 17 5 13 3
-3 4 -12 1 -19z m10 -53 c3 -9 3 -19 -1 -22 -7 -7 -36 16 -36 28 0 15 30 10
37 -6z m13 -61 c0 -8 -4 -12 -10 -9 -5 3 -10 10 -10 16 0 5 5 9 10 9 6 0 10
-7 10 -16z m106 -191 c15 -21 18 -79 5 -88 -14 -8 -44 60 -36 84 8 26 14 26
31 4z"/>
<path d="M5148 9544 c-9 -9 3 -42 18 -48 7 -3 18 3 24 14 8 15 6 21 -9 30 -23
12 -26 12 -33 4z"/>
<path d="M3692 9458 c6 -18 28 -21 28 -4 0 9 -7 16 -16 16 -9 0 -14 -5 -12
-12z"/>
<path d="M7400 9441 c0 -5 9 -7 20 -4 11 3 20 7 20 9 0 2 -9 4 -20 4 -11 0
-20 -4 -20 -9z"/>
<path d="M7123 9351 c-23 -19 -32 -61 -14 -61 5 0 17 -3 27 -7 12 -4 15 -3 10
6 -4 6 -2 19 5 27 16 20 19 54 5 54 -6 -1 -21 -9 -33 -19z"/>
<path d="M4905 9348 c-9 -22 4 -43 17 -30 7 7 7 16 0 29 -10 17 -11 17 -17 1z"/>
<path d="M5242 9325 c0 -35 9 -42 42 -29 24 9 19 39 -9 52 -34 16 -33 17 -33
-23z"/>
<path d="M4000 9310 c0 -5 5 -10 10 -10 6 0 10 5 10 10 0 6 -4 10 -10 10 -5 0
-10 -4 -10 -10z"/>
<path d="M4904 9289 c-3 -6 -1 -16 5 -22 9 -9 14 -8 21 3 9 15 4 30 -10 30 -5
0 -12 -5 -16 -11z"/>
<path d="M5335 8970 c-3 -5 1 -10 9 -10 9 0 16 5 16 10 0 6 -4 10 -9 10 -6 0
-13 -4 -16 -10z"/>
<path d="M5465 8950 c3 -5 10 -10 16 -10 5 0 9 5 9 10 0 6 -7 10 -16 10 -8 0
-12 -4 -9 -10z"/>
<path d="M5340 8942 c0 -6 6 -13 13 -16 8 -3 7 -8 -5 -16 -26 -16 -22 -32 16
-62 30 -24 34 -32 29 -61 -4 -28 -1 -36 22 -51 23 -15 29 -16 36 -5 11 18 11
26 -1 34 -14 9 -1 32 21 38 21 6 25 37 9 68 -14 25 -30 24 -30 -1 0 -24 -44
-38 -65 -20 -7 6 -15 30 -17 53 -2 22 -9 42 -15 45 -7 2 -13 -1 -13 -6z"/>
<path d="M4200 8915 c-7 -8 -13 -25 -14 -38 -1 -15 -7 -22 -21 -22 -27 0 -35
-24 -18 -57 12 -25 16 -27 36 -15 12 6 23 12 25 13 1 0 7 27 13 59 11 61 2 88
-21 60z"/>
<path d="M4560 8880 c0 -5 4 -10 9 -10 6 0 13 5 16 10 3 6 -1 10 -9 10 -9 0
-16 -4 -16 -10z"/>
<path d="M4470 8749 c0 -5 5 -7 10 -4 6 3 10 8 10 11 0 2 -4 4 -10 4 -5 0 -10
-5 -10 -11z"/>
<path d="M7761 8734 c0 -11 3 -14 6 -6 3 7 2 16 -1 19 -3 4 -6 -2 -5 -13z"/>
<path d="M4275 8721 c-6 -11 9 -23 19 -14 9 9 7 23 -3 23 -6 0 -12 -4 -16 -9z"/>
<path d="M5427 8666 c-4 -10 -5 -21 -2 -24 9 -9 17 6 13 25 -3 17 -4 17 -11
-1z"/>
<path d="M5367 8653 c-13 -12 -7 -23 13 -23 13 0 18 5 14 15 -7 16 -17 19 -27
8z"/>
<path d="M6960 8624 c0 -14 3 -14 15 -4 8 7 15 14 15 16 0 2 -7 4 -15 4 -8 0
-15 -7 -15 -16z"/>
<path d="M5280 8620 c0 -5 4 -10 9 -10 9 0 23 -55 25 -95 1 -27 -17 -32 -29
-8 -14 28 -35 17 -35 -18 0 -22 5 -29 19 -29 25 0 32 -12 20 -30 -7 -12 -9
-11 -9 5 0 14 -3 16 -12 7 -8 -8 -8 -15 0 -24 15 -18 3 -35 -28 -39 -17 -3
-25 -10 -25 -24 0 -26 -14 -47 -26 -40 -9 6 -10 2 -14 -55 -1 -23 -12 -46 -29
-64 -30 -33 -32 -42 -12 -49 11 -5 13 -13 7 -35 -7 -23 -5 -31 10 -40 10 -7
25 -12 33 -12 15 0 29 -27 21 -40 -3 -5 -18 -3 -34 3 -64 24 -74 -47 -10 -73
32 -14 49 -7 49 21 0 16 5 18 27 13 15 -4 33 -7 40 -7 7 0 11 -13 9 -34 -2
-30 1 -35 26 -40 32 -6 36 -18 11 -31 -13 -8 -11 -11 15 -17 17 -3 36 -4 41
-1 5 4 12 0 14 -6 4 -10 8 -9 16 2 12 16 14 9 11 -32 -1 -19 5 -28 22 -34 27
-8 47 -32 48 -56 0 -22 18 -24 26 -3 8 20 44 19 44 -1 0 -8 -5 -24 -10 -35 -9
-17 -7 -19 19 -19 16 0 31 5 33 11 6 18 48 0 48 -20 0 -25 46 -73 68 -70 9 2
27 -1 40 -5 13 -4 28 -3 36 3 7 6 15 8 18 5 11 -10 -4 -45 -24 -55 -15 -8 -17
-13 -8 -25 7 -7 16 -11 21 -8 5 3 17 0 28 -6 16 -8 22 -6 30 7 9 17 11 17 25
-3 19 -26 72 -22 79 7 5 19 37 27 37 9 0 -5 -4 -10 -10 -10 -5 0 -10 -7 -10
-15 0 -8 -7 -15 -16 -15 -8 0 -12 -5 -9 -10 3 -6 -5 -14 -18 -19 -22 -9 -43
-38 -34 -47 2 -2 18 1 35 7 29 10 37 20 33 42 0 4 6 7 14 7 8 0 15 4 15 10 0
5 3 9 8 9 24 -4 34 3 29 21 -4 15 0 20 14 20 10 0 22 0 27 1 4 0 9 -7 10 -16
3 -13 -1 -15 -17 -10 -23 7 -27 -5 -11 -36 9 -16 13 -17 24 -6 8 7 15 22 17
32 2 10 10 20 18 23 10 3 12 -5 6 -38 -7 -39 -6 -42 11 -35 11 4 31 10 47 13
15 2 30 8 33 13 7 12 41 11 49 -1 3 -5 2 -18 -4 -28 -12 -23 2 -48 34 -56 29
-7 32 -21 8 -35 -14 -8 -16 -14 -7 -27 18 -31 34 -28 34 6 0 21 4 30 13 27 6
-2 11 -14 10 -26 -3 -22 20 -30 32 -11 5 8 11 7 21 -1 12 -10 16 -8 21 10 7
28 25 22 29 -10 1 -17 -4 -28 -19 -35 -25 -11 -30 -24 -17 -44 9 -13 12 -12
25 4 12 16 15 17 15 4 0 -8 6 -21 14 -28 8 -6 12 -18 9 -27 -5 -12 0 -14 25
-8 29 6 31 5 34 -27 3 -32 4 -33 53 -35 28 -2 68 -5 90 -8 37 -6 41 -4 57 25
24 42 59 38 73 -7 8 -29 13 -33 43 -33 18 0 31 3 28 8 -7 11 105 7 112 -5 12
-18 37 -21 55 -5 20 18 29 12 31 -22 1 -29 6 -32 24 -14 9 9 12 6 12 -16 0
-26 -2 -28 -27 -22 -16 4 -33 14 -40 22 -15 20 -47 14 -51 -9 -4 -19 3 -23 73
-33 28 -3 45 -9 38 -11 -7 -2 -15 -21 -19 -41 -4 -20 -15 -48 -25 -61 -10 -13
-16 -27 -13 -32 9 -15 34 -10 34 7 0 12 6 15 22 11 12 -4 28 -1 36 5 10 9 18
6 35 -11 l22 -22 -22 -5 c-17 -5 -23 -14 -23 -33 0 -15 -5 -32 -12 -39 -23
-23 3 -25 40 -4 30 17 36 26 34 48 -2 20 1 25 11 21 8 -3 20 0 26 6 7 7 26 12
43 12 37 0 48 20 16 28 -18 5 -20 9 -10 19 10 10 17 10 32 0 16 -10 20 -10 21
0 3 36 17 68 30 68 16 0 23 -71 8 -82 -11 -8 -10 -8 4 -4 10 3 23 6 28 6 14 0
11 38 -3 42 -8 3 -6 13 9 32 19 23 23 25 31 11 7 -14 11 -15 23 -3 8 7 26 21
41 30 19 12 25 23 21 38 -6 23 15 28 36 8 11 -11 12 -8 7 14 -5 22 -2 28 16
34 13 3 31 15 42 26 13 14 21 17 29 9 14 -14 30 -14 22 -1 -3 6 -2 10 4 10 17
0 182 110 232 155 46 40 186 127 224 139 21 6 139 130 187 198 44 60 68 146
68 243 0 83 -9 103 -29 68 -12 -20 -14 -14 -11 39 1 28 -4 40 -19 50 -12 7
-21 18 -21 25 0 12 -28 30 -82 55 -16 7 -29 18 -29 25 -1 7 -2 19 -3 26 -1 6
-5 15 -11 19 -5 4 -2 10 8 14 9 3 17 12 17 19 0 8 13 23 29 34 24 17 31 19 40
7 9 -11 8 -14 -6 -12 -12 1 -19 -7 -21 -23 -3 -22 -2 -22 17 -9 24 17 71 84
71 101 0 7 -7 26 -16 42 -19 36 -26 60 -28 99 -1 21 -7 30 -21 32 -30 4 -65
26 -65 41 0 7 -8 13 -19 13 -10 0 -24 6 -30 13 -19 23 -301 12 -301 -12 0 -3
-41 -6 -90 -7 -78 -1 -93 -4 -114 -23 -14 -13 -29 -19 -39 -15 -12 4 -17 1
-17 -10 0 -12 -7 -14 -31 -9 -28 5 -30 4 -23 -21 5 -20 2 -26 -10 -26 -9 0
-16 -7 -16 -15 0 -19 14 -19 33 0 13 12 15 11 19 -10 7 -33 -5 -49 -31 -40
-17 5 -21 2 -21 -14 0 -13 -7 -21 -17 -21 -16 -1 -16 -2 1 -12 15 -8 21 -8 24
0 4 13 23 17 20 5 -1 -5 2 -19 6 -32 7 -19 13 -22 37 -17 35 7 72 -23 62 -51
-5 -13 -3 -15 11 -10 20 8 80 -35 68 -48 -4 -5 1 -5 11 -2 10 4 26 1 36 -5 15
-9 22 -8 36 5 22 23 45 21 45 -3 0 -21 39 -48 49 -34 3 5 20 17 38 26 31 16
32 16 38 -3 6 -16 12 -19 36 -14 16 4 29 2 29 -3 0 -11 -29 -37 -50 -45 -9 -3
-10 -6 -2 -6 14 -1 17 -37 3 -46 -5 -3 -16 2 -24 10 -30 29 -53 6 -24 -24 10
-11 8 -12 -10 -6 -20 6 -23 3 -23 -24 0 -20 -5 -31 -14 -31 -8 0 -21 -9 -28
-19 -15 -21 -31 -17 -41 12 -3 9 -13 17 -21 17 -19 0 -28 57 -20 120 4 34 3
50 -5 50 -6 0 -11 -8 -11 -18 0 -10 -5 -23 -12 -30 -9 -9 -9 -12 2 -12 10 0 9
-4 -3 -18 -11 -12 -13 -22 -7 -32 11 -16 3 -105 -12 -132 -5 -10 -17 -18 -28
-18 -11 0 -20 -8 -22 -20 -4 -26 -22 -27 -26 -3 -2 10 -13 32 -26 47 l-22 29
4 -37 c4 -38 1 -40 -53 -25 -5 1 -22 -3 -36 -10 -23 -11 -30 -10 -54 5 -27 17
-28 17 -41 -2 -33 -48 -34 -48 -104 -32 -9 2 -16 -8 -20 -27 -7 -39 -35 -44
-69 -11 -16 15 -45 29 -67 33 -49 7 -64 19 -64 49 0 15 -6 24 -15 24 -18 0
-21 -46 -3 -52 6 -2 0 -15 -16 -31 -27 -28 -42 -36 -31 -16 4 6 -2 13 -14 16
-18 5 -51 52 -51 74 0 4 9 10 19 14 20 6 38 41 27 52 -3 3 -21 -8 -41 -26
l-36 -31 -89 6 c-76 5 -90 4 -90 -9 0 -9 6 -18 13 -20 9 -4 9 -6 -1 -6 -7 -1
-15 6 -19 15 -5 13 -10 11 -33 -11 -21 -21 -37 -26 -66 -25 -76 4 -115 0 -109
-10 3 -5 -3 -10 -14 -10 -10 0 -22 6 -24 13 -3 7 -6 5 -6 -5 -1 -22 0 -22 -42
-3 -20 8 -47 33 -64 60 -16 25 -33 45 -37 45 -12 0 -9 -15 5 -29 10 -10 7 -16
-12 -30 -23 -18 -26 -58 -3 -54 8 2 9 -8 5 -30 -3 -17 -6 -33 -7 -34 -1 -1
-36 -5 -78 -8 -49 -4 -78 -2 -83 4 -10 16 -45 13 -45 -4 0 -20 -19 -19 -42 2
-17 15 -19 15 -33 -3 -14 -18 -14 -18 -15 4 0 12 5 22 10 22 6 0 10 7 10 15 0
8 -7 15 -15 15 -9 0 -19 10 -24 22 -8 23 -56 33 -78 16 -8 -6 -10 1 -9 24 3
34 -7 49 -36 61 -22 8 -24 36 -3 43 36 14 -1 58 -40 48 -29 -7 -40 -20 -25
-29 12 -8 13 -55 1 -55 -5 0 -14 7 -21 15 -7 9 -20 13 -29 10 -12 -4 -12 -2 2
9 19 15 19 33 0 53 -15 17 -23 16 -23 -2 0 -8 -4 -15 -10 -15 -5 0 -10 7 -10
15 0 11 -9 15 -29 13 -16 -1 -36 3 -44 10 -16 14 -47 6 -47 -11 0 -7 -3 -8
-10 -1 -17 17 0 53 29 56 23 3 21 4 -17 17 -44 15 -64 9 -44 -11 18 -18 14
-30 -7 -23 -11 3 -22 1 -26 -5 -8 -13 -45 -13 -45 0 0 6 -5 10 -12 10 -6 0
-20 7 -30 16 -16 15 -18 15 -24 0 -3 -9 -10 -13 -15 -10 -17 10 -9 25 19 37
24 10 27 16 21 37 -4 14 -7 19 -8 12 -1 -14 -21 -7 -21 8 0 5 10 19 22 30 l23
21 -25 19 c-25 19 -25 19 -28 -1 -3 -16 -6 -18 -18 -8 -20 17 -17 39 6 39 11
0 20 7 20 15 0 17 -36 39 -50 30 -6 -3 -10 -1 -10 5 0 6 -4 8 -10 5 -5 -3 -7
-19 -3 -35 4 -23 2 -30 -11 -30 -9 0 -16 8 -16 19 0 11 -10 28 -23 38 -18 15
-22 27 -20 68 1 28 6 63 12 78 10 26 8 45 -14 145 -4 17 -12 22 -35 22 -17 0
-30 -4 -30 -10z m2372 -285 c6 -28 -6 -34 -16 -9 -8 22 -7 34 3 34 5 0 11 -11
13 -25z m682 -28 c-2 -7 -13 -13 -24 -13 -18 0 -18 2 -3 18 17 19 35 15 27 -5z
m-174 -117 c0 -5 -2 -10 -4 -10 -3 0 -8 5 -11 10 -3 6 -1 10 4 10 6 0 11 -4
11 -10z m-2640 -154 c0 -9 -7 -12 -21 -9 -16 4 -17 8 -7 14 19 13 28 11 28 -5z
m2565 -55 c-3 -2 -10 0 -16 6 -6 6 -18 9 -26 6 -9 -3 -5 5 8 18 l24 24 7 -24
c4 -14 5 -27 3 -30z m-2525 14 c-17 -21 2 -44 22 -27 15 12 35 4 40 -17 2 -9
-8 -15 -27 -18 -16 -2 -34 -8 -39 -14 -6 -5 -16 -9 -24 -9 -12 0 -12 3 -2 15
9 11 9 19 2 28 -17 20 -3 57 20 57 17 0 18 -2 8 -15z m-160 1 c0 -3 -4 -8 -10
-11 -5 -3 -10 -1 -10 4 0 6 5 11 10 11 6 0 10 -2 10 -4z m2615 -38 c9 -39 7
-59 -7 -73 -7 -7 -9 -3 -5 12 3 13 -1 27 -9 34 -8 6 -11 15 -8 20 3 5 -2 12
-10 15 -20 8 -11 24 13 24 13 0 21 -11 26 -32z m-2195 -32 c0 -2 -7 -6 -15
-10 -8 -3 -15 -1 -15 4 0 6 7 10 15 10 8 0 15 -2 15 -4z m-180 -32 c0 -8 -7
-14 -15 -14 -17 0 -18 2 -9 24 7 18 24 12 24 -10z m227 0 c-3 -3 -12 -4 -19
-1 -8 3 -5 6 6 6 11 1 17 -2 13 -5z m1073 -24 c0 -5 -4 -10 -10 -10 -5 0 -10
5 -10 10 0 6 5 10 10 10 6 0 10 -4 10 -10z m-1050 -30 c0 -5 -7 -10 -16 -10
-8 0 -12 5 -9 10 3 6 10 10 16 10 5 0 9 -4 9 -10z m-319 -43 c-13 -13 -26 -3
-16 12 3 6 11 8 17 5 6 -4 6 -10 -1 -17z m1049 -15 c0 -15 -2 -15 -10 -2 -13
20 -13 33 0 25 6 -3 10 -14 10 -23z m-851 -6 c7 -8 8 -17 3 -19 -4 -3 -13 3
-20 14 -14 22 0 26 17 5z m151 4 c0 -5 -7 -10 -15 -10 -8 0 -15 5 -15 10 0 6
7 10 15 10 8 0 15 -4 15 -10z m95 -20 c9 8 18 6 31 -7 17 -17 17 -18 -11 -21
-18 -2 -31 2 -37 12 -5 9 -16 16 -23 16 -16 0 -20 12 -8 23 3 4 13 -2 21 -14
10 -15 17 -17 27 -9z m430 10 c10 -16 -5 -50 -21 -50 -9 0 -14 11 -14 30 0 30
21 42 35 20z m-765 -10 c0 -5 -2 -10 -4 -10 -3 0 -8 5 -11 10 -3 6 -1 10 4 10
6 0 11 -4 11 -10z m-65 -10 c3 -5 1 -10 -4 -10 -6 0 -11 5 -11 10 0 6 2 10 4
10 3 0 8 -4 11 -10z m92 -16 c-3 -3 -12 -4 -19 -1 -8 3 -5 6 6 6 11 1 17 -2
13 -5z m248 -44 c-10 -11 -22 -17 -27 -14 -5 3 -1 12 9 20 27 20 39 17 18 -6z
m315 10 c0 -5 -6 -10 -14 -10 -8 0 -18 5 -21 10 -3 6 3 10 14 10 12 0 21 -4
21 -10z m-585 -28 c-3 -3 -11 0 -18 7 -9 10 -8 11 6 5 10 -3 15 -9 12 -12z
m125 -22 c0 -20 -5 -30 -15 -30 -17 0 -18 4 -9 38 9 32 24 27 24 -8z m222 -12
c-9 -9 -12 -7 -12 12 0 19 3 21 12 12 9 -9 9 -15 0 -24z m-140 -22 c12 -17 9
-26 -7 -26 -9 0 -15 9 -15 21 0 15 -5 19 -15 15 -9 -3 -15 0 -15 10 0 12 4 13
23 3 12 -7 25 -17 29 -23z m228 -84 c0 -23 -35 -8 -38 16 -3 21 -2 22 17 10
12 -7 21 -19 21 -26z m60 -24 c0 -25 -3 -29 -10 -18 -13 20 -13 50 0 50 6 0
10 -15 10 -32z m165 -78 c10 -17 -14 -39 -35 -33 -16 4 -18 9 -9 24 11 21 34
25 44 9z m50 -20 c-3 -5 -10 -10 -16 -10 -5 0 -9 5 -9 10 0 6 7 10 16 10 8 0
12 -4 9 -10z m75 -31 c0 -6 -4 -7 -10 -4 -5 3 -10 11 -10 16 0 6 5 7 10 4 6
-3 10 -11 10 -16z m60 -70 c0 -5 -7 -9 -15 -9 -15 0 -20 12 -9 23 8 8 24 -1
24 -14z m65 -149 c-5 -8 -11 -8 -17 -2 -6 6 -7 16 -3 22 5 8 11 8 17 2 6 -6 7
-16 3 -22z m90 20 c-3 -5 -15 -10 -26 -10 -10 0 -19 5 -19 10 0 6 12 10 26 10
14 0 23 -4 19 -10z m475 -110 c0 -5 -4 -10 -10 -10 -5 0 -10 5 -10 10 0 6 5
10 10 10 6 0 10 -4 10 -10z m310 -10 c0 -5 -7 -10 -16 -10 -8 0 -12 5 -9 10 3
6 10 10 16 10 5 0 9 -4 9 -10z m-210 -39 c0 -20 -17 -31 -38 -23 -10 3 -9 8 4
23 22 24 34 24 34 0z m-67 -29 c-5 -22 -23 -31 -23 -12 0 10 23 40 27 36 1 -1
0 -12 -4 -24z m65 -33 c2 -9 -7 -15 -23 -17 -27 -2 -32 7 -13 26 15 15 32 10
36 -9z m68 -6 c-7 -7 -26 7 -26 19 0 6 6 6 15 -2 9 -7 13 -15 11 -17z m-156
-8 c0 -7 -6 -18 -14 -24 -12 -10 -17 -8 -25 8 -14 26 -15 26 14 27 14 1 25 -4
25 -11z m56 -35 c15 0 24 -6 24 -15 0 -8 5 -15 12 -15 6 0 8 -3 5 -6 -4 -4
-18 1 -32 10 -14 9 -25 13 -25 9 0 -5 -5 -1 -10 7 -5 8 -9 20 -9 25 0 6 3 4 6
-2 2 -7 16 -13 29 -13z"/>
<path d="M7290 8620 c-13 -8 -12 -10 3 -10 9 0 17 5 17 10 0 12 -1 12 -20 0z"/>
<path d="M5198 8574 c2 -18 10 -35 18 -38 15 -6 18 -1 28 47 6 25 4 27 -22 25
-25 -2 -27 -5 -24 -34z"/>
<path d="M6975 8460 c-8 -13 4 -32 16 -25 12 8 12 35 0 35 -6 0 -13 -4 -16
-10z"/>
<path d="M5480 8421 c0 -5 5 -13 10 -16 6 -3 10 -2 10 4 0 5 -4 13 -10 16 -5
3 -10 2 -10 -4z"/>
<path d="M4441 8384 c0 -11 3 -14 6 -6 3 7 2 16 -1 19 -3 4 -6 -2 -5 -13z"/>
<path d="M5440 8360 c0 -5 7 -10 15 -10 8 0 15 5 15 10 0 6 -7 10 -15 10 -8 0
-15 -4 -15 -10z"/>
<path d="M6926 8342 c-4 -13 -5 -26 -2 -29 10 -11 18 4 14 29 l-4 23 -8 -23z"/>
<path d="M7434 8294 c3 -9 6 -21 7 -27 0 -7 4 -3 9 8 13 29 12 35 -6 35 -11 0
-14 -5 -10 -16z"/>
<path d="M7482 8299 c2 -6 8 -10 13 -10 5 0 11 4 13 10 2 6 -4 11 -13 11 -9 0
-15 -5 -13 -11z"/>
<path d="M4390 8280 c0 -5 5 -10 11 -10 5 0 7 5 4 10 -3 6 -8 10 -11 10 -2 0
-4 -4 -4 -10z"/>
<path d="M5780 8230 c0 -11 4 -20 9 -20 11 0 22 26 14 34 -12 12 -23 5 -23
-14z"/>
<path d="M6980 8175 c0 -8 5 -15 10 -15 6 0 10 7 10 15 0 8 -4 15 -10 15 -5 0
-10 -7 -10 -15z"/>
<path d="M4416 8148 c-7 -35 2 -51 22 -39 8 5 10 18 6 39 -8 41 -20 41 -28 0z"/>
<path d="M8258 8172 c-22 -4 -24 -32 -3 -32 9 0 18 7 22 15 7 19 3 22 -19 17z"/>
<path d="M5745 8140 c-3 -5 -1 -10 4 -10 6 0 11 5 11 10 0 6 -2 10 -4 10 -3 0
-8 -4 -11 -10z"/>
<path d="M5554 8106 c-6 -17 2 -36 17 -36 12 0 12 37 -1 45 -6 3 -13 -1 -16
-9z"/>
<path d="M7934 8091 c-2 -2 -4 -10 -4 -17 0 -9 7 -9 30 2 17 9 30 17 30 19 0
4 -51 1 -56 -4z"/>
<path d="M5783 8065 c-3 -9 -3 -18 0 -21 9 -9 27 6 27 22 0 19 -19 18 -27 -1z"/>
<path d="M7860 8004 c0 -8 4 -13 9 -9 5 3 12 -4 16 -15 10 -30 35 -25 35 8 0
23 -4 27 -30 29 -21 2 -30 -2 -30 -13z"/>
<path d="M5225 7950 c-3 -5 -1 -10 4 -10 6 0 11 5 11 10 0 6 -2 10 -4 10 -3 0
-8 -4 -11 -10z"/>
<path d="M7507 7933 c-11 -10 -8 -63 2 -63 12 0 41 40 41 57 0 14 -32 18 -43
6z"/>
<path d="M6578 7873 c6 -2 18 -2 25 0 6 3 1 5 -13 5 -14 0 -19 -2 -12 -5z"/>
<path d="M6510 7850 c0 -5 7 -10 15 -10 8 0 15 5 15 10 0 6 -7 10 -15 10 -8 0
-15 -4 -15 -10z"/>
<path d="M5405 7770 c-3 -5 -1 -10 4 -10 6 0 11 5 11 10 0 6 -2 10 -4 10 -3 0
-8 -4 -11 -10z"/>
<path d="M5428 7753 c-20 -5 -24 -23 -5 -23 17 0 41 17 31 22 -5 2 -17 3 -26
1z"/>
<path d="M5474 7684 c3 -9 6 -20 6 -25 0 -5 9 -9 20 -9 25 0 26 12 2 33 -23
21 -36 22 -28 1z"/>
<path d="M5585 7600 c-3 -5 -1 -10 4 -10 6 0 11 5 11 10 0 6 -2 10 -4 10 -3 0
-8 -4 -11 -10z"/>
<path d="M5552 7540 c-10 -17 -10 -20 3 -20 8 0 15 9 15 20 0 11 -1 20 -3 20
-1 0 -8 -9 -15 -20z"/>
<path d="M5875 7461 c-3 -5 -1 -12 5 -16 5 -3 10 1 10 9 0 18 -6 21 -15 7z"/>
<path d="M6222 7438 c0 -7 -4 -24 -8 -37 -11 -35 12 -18 24 19 9 23 8 30 -2
30 -7 0 -13 -6 -14 -12z"/>
<path d="M6346 7254 c-9 -34 -2 -40 29 -24 28 15 33 35 9 44 -26 10 -32 7 -38
-20z"/>
<path d="M6010 7254 c0 -8 5 -12 10 -9 6 3 10 10 10 16 0 5 -4 9 -10 9 -5 0
-10 -7 -10 -16z"/>
<path d="M4500 7185 c0 -8 5 -15 10 -15 6 0 10 7 10 15 0 8 -4 15 -10 15 -5 0
-10 -7 -10 -15z"/>
<path d="M6410 7185 c-7 -9 -10 -18 -7 -21 10 -10 47 7 47 22 0 19 -24 18 -40
-1z"/>
<path d="M6190 7155 c-10 -13 -9 -15 9 -15 11 0 21 4 21 9 0 18 -18 21 -30 6z"/>
<path d="M6925 7069 c4 -13 14 -29 21 -37 8 -7 14 -18 14 -23 0 -6 5 -7 10 -4
8 5 8 11 1 19 -7 9 -7 16 1 24 14 14 4 27 -30 37 -22 6 -23 5 -17 -16z"/>
<path d="M6555 7050 c-3 -5 -1 -10 4 -10 6 0 11 5 11 10 0 6 -2 10 -4 10 -3 0
-8 -4 -11 -10z"/>
<path d="M6335 7030 c4 -6 11 -8 16 -5 14 9 11 15 -7 15 -8 0 -12 -5 -9 -10z"/>
<path d="M6445 7030 c3 -5 8 -10 11 -10 2 0 4 5 4 10 0 6 -5 10 -11 10 -5 0
-7 -4 -4 -10z"/>
<path d="M6611 7030 c-1 -21 16 -46 26 -37 4 5 3 11 -3 15 -6 4 -14 14 -17 22
-5 13 -5 13 -6 0z"/>
<path d="M4490 6990 c0 -5 5 -10 10 -10 6 0 10 5 10 10 0 6 -4 10 -10 10 -5 0
-10 -4 -10 -10z"/>
<path d="M6915 6990 c3 -5 8 -10 11 -10 2 0 4 5 4 10 0 6 -5 10 -11 10 -5 0
-7 -4 -4 -10z"/>
<path d="M7008 6980 c-15 -3 -37 -13 -49 -23 -14 -13 -25 -15 -31 -9 -11 11
-36 5 -55 -14 -19 -19 -16 -25 10 -19 12 3 35 -1 51 -9 22 -11 34 -12 52 -4
17 8 27 8 39 -2 12 -10 18 -10 30 0 15 12 12 48 -5 60 -4 3 -9 10 -11 15 -2 6
-16 8 -31 5z"/>
<path d="M4555 6949 c-4 -6 -5 -12 -2 -15 2 -3 7 2 10 11 7 17 1 20 -8 4z"/>
<path d="M4477 6903 c-4 -3 -7 -13 -7 -20 0 -12 3 -12 15 1 8 8 15 17 15 20 0
8 -15 7 -23 -1z"/>
<path d="M4520 6900 c0 -5 5 -10 10 -10 6 0 10 5 10 10 0 6 -4 10 -10 10 -5 0
-10 -4 -10 -10z"/>
<path d="M4605 6890 c-3 -5 -1 -10 4 -10 6 0 11 5 11 10 0 6 -2 10 -4 10 -3 0
-8 -4 -11 -10z"/>
<path d="M4383 6843 c-7 -15 -17 -48 -22 -73 -21 -94 -65 -208 -112 -288 -27
-45 -49 -86 -49 -90 0 -4 -25 -38 -55 -76 -30 -38 -55 -75 -55 -82 0 -11 -15
-14 -61 -12 l-62 3 -36 -45 c-63 -78 -136 -147 -166 -154 -16 -4 -80 -44 -144
-90 -201 -143 -253 -177 -366 -241 -60 -34 -184 -107 -275 -162 -91 -55 -248
-148 -350 -208 -320 -187 -431 -269 -755 -559 -170 -152 -249 -203 -346 -220
-41 -7 -84 -18 -96 -24 -38 -21 -70 -73 -104 -170 l-32 -93 -61 -28 c-123 -56
-443 -345 -651 -588 -37 -43 -95 -132 -143 -220 -108 -198 -133 -231 -299
-405 l-143 -150 0 -1434 0 -1434 5715 0 5716 0 -4 903 -3 902 -27 165 c-15 91
-32 224 -37 295 -22 294 -87 579 -200 885 -18 47 -44 121 -60 165 -80 234
-173 421 -288 583 -37 53 -103 156 -146 229 -73 121 -122 190 -250 351 -51 64
-104 97 -220 136 -27 9 -72 28 -100 41 -32 15 -87 28 -146 35 -52 7 -126 23
-165 37 -311 110 -607 202 -820 254 -49 12 -124 38 -165 59 -41 21 -136 62
-210 93 -143 58 -370 159 -407 180 -41 23 -218 161 -263 205 -74 72 -120 107
-213 161 -49 28 -91 51 -94 51 -12 0 41 -229 68 -293 57 -135 75 -291 39 -327
-21 -21 -28 -84 -11 -95 6 -3 4 -24 -4 -51 -15 -50 -6 -96 17 -92 8 2 14 -9
15 -27 4 -50 14 -99 23 -120 5 -11 9 -29 7 -40 -1 -15 3 -19 17 -17 11 2 15
-1 11 -8 -4 -7 -2 -22 5 -35 18 -33 -11 -88 -73 -137 -55 -43 -80 -55 -207
-100 -77 -28 -99 -31 -240 -35 -132 -4 -168 -2 -241 16 -91 21 -284 81 -429
133 -47 16 -161 56 -255 88 -93 32 -192 68 -220 79 -27 11 -93 36 -145 57 -52
20 -108 42 -125 49 -16 7 -50 20 -75 30 -25 10 -70 29 -100 43 -30 13 -73 31
-95 40 -108 43 -385 189 -479 253 -105 72 -179 141 -293 279 -69 85 -97 115
-302 326 -80 83 -153 161 -161 172 -8 12 -20 22 -27 22 -7 0 -13 5 -13 10 0
17 28 11 42 -8 13 -18 71 -62 82 -62 3 0 6 7 6 15 0 9 7 18 15 21 8 4 15 12
15 20 0 8 -7 14 -15 14 -8 0 -15 9 -15 20 0 11 5 20 11 20 20 0 48 44 42 68
-5 23 -4 24 40 27 22 2 31 -4 38 -21 4 -13 15 -24 23 -24 8 0 21 -3 30 -6 13
-5 15 -1 10 25 -5 25 -3 31 10 31 12 0 16 7 13 28 -4 30 -23 36 -49 14 -16
-14 -18 -13 -18 9 1 13 7 35 15 49 21 37 19 53 -6 47 -12 -3 -18 -3 -15 0 3 4
1 12 -5 19 -15 18 -1 57 18 50 8 -3 19 -6 24 -6 19 0 8 -19 -13 -23 -20 -4
-19 -4 5 -6 18 -1 27 4 27 14 0 9 7 27 17 41 15 24 15 26 -1 42 -16 16 -18 16
-31 -2 -20 -27 -45 -13 -45 25 0 22 5 32 20 36 15 4 20 14 21 42 1 20 0 41 -1
46 -7 27 -6 62 1 77 6 11 4 18 -6 22 -21 8 -19 53 3 59 13 4 12 5 -5 6 -12 0
-25 6 -28 12 -4 6 -19 7 -37 4 -23 -6 -29 -4 -26 6 3 8 17 13 35 12 27 -2 29
0 30 31 1 34 1 34 -38 31 -27 -3 -37 0 -33 7 4 7 2 8 -4 4 -7 -4 -12 -21 -12
-37 0 -39 -24 -34 -28 5 -2 15 -8 26 -15 23 -15 -5 -28 -55 -16 -63 5 -3 9
-14 9 -25 0 -10 5 -19 10 -19 6 0 10 -11 10 -24 0 -15 7 -26 20 -29 11 -3 20
-10 20 -16 0 -6 -9 -15 -20 -21 -16 -9 -20 -8 -20 5 0 8 -5 15 -10 15 -6 0
-20 19 -30 43 -21 46 -23 44 -20 -25 2 -67 -22 -65 -44 3 -18 53 -16 76 11
161 8 25 13 56 11 68 -3 19 -4 19 -15 -7z m187 -193 c0 -5 -2 -10 -4 -10 -3 0
-8 5 -11 10 -3 6 -1 10 4 10 6 0 11 -4 11 -10z m-214 -70 c1 -38 -15 -100 -27
-100 -12 0 -18 26 -8 41 5 8 9 34 9 57 0 53 24 54 26 2z m246 -74 c4 -39 0
-56 -13 -56 -5 0 -9 15 -9 33 0 18 -5 38 -12 45 -9 9 -7 12 9 12 16 0 22 -7
25 -34z m-282 -43 c0 -6 -8 -9 -20 -6 -22 6 -27 29 -7 36 13 4 27 -10 27 -30z
m-40 -24 c0 -6 -4 -7 -10 -4 -5 3 -10 11 -10 16 0 6 5 7 10 4 6 -3 10 -11 10
-16z m-10 -45 c0 -8 -5 -12 -10 -9 -6 4 -8 11 -5 16 9 14 15 11 15 -7z m150
-24 c-18 -12 -43 -13 -36 -2 2 4 15 8 28 9 18 2 19 0 8 -7z m110 -4 c0 -3 -4
-8 -10 -11 -5 -3 -10 -1 -10 4 0 6 5 11 10 11 6 0 10 -2 10 -4z m-280 -16 c0
-5 -4 -10 -10 -10 -5 0 -10 5 -10 10 0 6 5 10 10 10 6 0 10 -4 10 -10z m296
-64 c15 -16 18 -26 6 -26 -4 0 -13 9 -20 20 -14 23 -7 26 14 6z m-106 -47 c0
-5 14 -15 30 -20 17 -6 30 -17 30 -25 0 -21 -12 -17 -47 17 -35 32 -39 39 -23
39 6 0 10 -5 10 -11z m-205 -19 c3 -5 -1 -10 -10 -10 -9 0 -13 5 -10 10 3 6 8
10 10 10 2 0 7 -4 10 -10z m175 -31 c0 -5 -4 -9 -10 -9 -5 0 -10 7 -10 16 0 8
5 12 10 9 6 -3 10 -10 10 -16z m40 -55 c0 -8 -4 -12 -10 -9 -5 3 -10 13 -10
21 0 8 5 12 10 9 6 -3 10 -13 10 -21z m28 -86 c-3 -7 -11 -13 -18 -13 -7 0
-15 6 -17 13 -3 7 4 12 17 12 13 0 20 -5 18 -12z m-128 -23 c0 -8 -7 -15 -15
-15 -16 0 -20 12 -8 23 11 12 23 8 23 -8z m75 -57 c0 -32 -5 -53 -12 -55 -8
-3 -13 4 -13 17 0 12 -6 28 -14 36 -15 14 -10 58 5 48 5 -3 9 -1 9 5 0 6 6 8
13 5 8 -3 13 -23 12 -56z m3325 -923 c0 -8 -4 -16 -9 -19 -5 -3 -8 5 -7 18 1
25 16 26 16 1z m50 -309 c0 -3 -4 -8 -10 -11 -5 -3 -10 -1 -10 4 0 6 5 11 10
11 6 0 10 -2 10 -4z"/>
<path d="M4509 6848 c-6 -11 -8 -27 -5 -35 6 -14 8 -14 24 0 14 13 25 15 50 8
17 -5 34 -6 37 -2 7 12 -6 21 -32 21 -12 0 -23 4 -23 9 0 19 -40 19 -51 -1z"/>
<path d="M4690 6860 c0 -5 5 -10 10 -10 6 0 10 5 10 10 0 6 -4 10 -10 10 -5 0
-10 -4 -10 -10z"/>
<path d="M7106 6826 c3 -8 0 -17 -5 -21 -6 -3 -9 -11 -5 -16 3 -5 10 -7 15 -4
12 8 12 55 -1 55 -5 0 -7 -6 -4 -14z"/>
<path d="M4635 6750 c-3 -5 -1 -10 4 -10 6 0 11 5 11 10 0 6 -2 10 -4 10 -3 0
-8 -4 -11 -10z"/>
<path d="M7512 6650 c0 -14 2 -19 5 -12 2 6 2 18 0 25 -3 6 -5 1 -5 -13z"/>
<path d="M4650 6640 c8 -5 22 -10 30 -10 13 0 13 1 0 10 -8 5 -22 10 -30 10
-13 0 -13 -1 0 -10z"/>
<path d="M7530 6290 c0 -40 3 -70 7 -67 7 7 5 129 -3 136 -2 2 -4 -29 -4 -69z"/>
<path d="M4540 5999 c0 -5 5 -7 10 -4 6 3 10 8 10 11 0 2 -4 4 -10 4 -5 0 -10
-5 -10 -11z"/>
<path d="M7571 5814 c0 -11 3 -14 6 -6 3 7 2 16 -1 19 -3 4 -6 -2 -5 -13z"/>
<path d="M4720 5592 c0 -5 7 -13 16 -16 10 -4 14 -1 12 6 -5 15 -28 23 -28 10z"/>
<path d="M4800 5496 c0 -15 25 -56 37 -60 18 -7 29 22 16 43 -9 15 -53 29 -53
17z"/>
<path d="M4860 5419 c0 -5 5 -7 10 -4 6 3 10 8 10 11 0 2 -4 4 -10 4 -5 0 -10
-5 -10 -11z"/>
<path d="M7700 4824 c0 -8 5 -12 10 -9 6 3 10 10 10 16 0 5 -4 9 -10 9 -5 0
-10 -7 -10 -16z"/>
</g>
</svg>
